G75*
%MOIN*%
%OFA0B0*%
%FSLAX25Y25*%
%IPPOS*%
%LPD*%
%AMOC8*
5,1,8,0,0,1.08239X$1,22.5*
%
%ADD10C,0.06000*%
%ADD11R,0.07283X0.07283*%
%ADD12C,0.07283*%
%ADD13R,0.04000X0.02000*%
%ADD14C,0.00500*%
%ADD15C,0.01600*%
%ADD16C,0.05600*%
%ADD17C,0.03962*%
%ADD18C,0.03569*%
%ADD19C,0.02400*%
%ADD20C,0.04000*%
%ADD21C,0.03200*%
D10*
X0053454Y0010926D02*
X0053454Y0016926D01*
X0063454Y0016926D02*
X0063454Y0010926D01*
X0073454Y0010926D02*
X0073454Y0016926D01*
X0083454Y0016926D02*
X0083454Y0010926D01*
X0093454Y0010926D02*
X0093454Y0016926D01*
X0103454Y0016926D02*
X0103454Y0010926D01*
X0113454Y0010926D02*
X0113454Y0016926D01*
X0123454Y0016926D02*
X0123454Y0010926D01*
X0133454Y0010926D02*
X0133454Y0016926D01*
D11*
X0016918Y0017745D03*
X0067863Y0102272D03*
D12*
X0081643Y0102272D03*
X0016918Y0031524D03*
D13*
X0065721Y0031761D03*
X0074296Y0032194D03*
X0084737Y0031406D03*
X0093312Y0031839D03*
X0089083Y0024005D03*
X0070068Y0024359D03*
D14*
X0072519Y0022062D02*
X0067181Y0022062D01*
X0067219Y0022010D02*
X0066810Y0022570D01*
X0066519Y0023199D01*
X0066355Y0023872D01*
X0066327Y0024565D01*
X0066433Y0025250D01*
X0066672Y0025900D01*
X0067033Y0026492D01*
X0067502Y0027002D01*
X0068062Y0027411D01*
X0068691Y0027702D01*
X0069364Y0027866D01*
X0070057Y0027894D01*
X0070741Y0027788D01*
X0071392Y0027549D01*
X0071984Y0027188D01*
X0072381Y0026797D01*
X0072847Y0026490D01*
X0073363Y0026280D01*
X0073911Y0026175D01*
X0074469Y0026179D01*
X0075015Y0026291D01*
X0075529Y0026508D01*
X0075990Y0026821D01*
X0072680Y0022237D01*
X0072211Y0021727D01*
X0071651Y0021318D01*
X0071022Y0021027D01*
X0070348Y0020864D01*
X0069656Y0020835D01*
X0068971Y0020942D01*
X0068320Y0021180D01*
X0067729Y0021541D01*
X0067219Y0022010D01*
X0067705Y0021563D02*
X0071986Y0021563D01*
X0071104Y0021065D02*
X0068636Y0021065D01*
X0066817Y0022560D02*
X0072913Y0022560D01*
X0073273Y0023059D02*
X0066584Y0023059D01*
X0066432Y0023557D02*
X0073633Y0023557D01*
X0073993Y0024056D02*
X0066348Y0024056D01*
X0066327Y0024554D02*
X0074353Y0024554D01*
X0074713Y0025053D02*
X0066403Y0025053D01*
X0066544Y0025551D02*
X0075073Y0025551D01*
X0075433Y0026050D02*
X0066763Y0026050D01*
X0067084Y0026548D02*
X0072758Y0026548D01*
X0072127Y0027047D02*
X0067563Y0027047D01*
X0068352Y0027545D02*
X0071398Y0027545D01*
X0072186Y0029041D02*
X0076394Y0029041D01*
X0076459Y0029082D02*
X0075874Y0028711D01*
X0075228Y0028461D01*
X0074545Y0028342D01*
X0073852Y0028359D01*
X0073176Y0028510D01*
X0072542Y0028791D01*
X0071975Y0029190D01*
X0071497Y0029691D01*
X0071126Y0030277D01*
X0070876Y0030923D01*
X0070757Y0031606D01*
X0070774Y0032299D01*
X0070940Y0032813D01*
X0071002Y0033349D01*
X0070959Y0033887D01*
X0070812Y0034406D01*
X0070566Y0034887D01*
X0070231Y0035311D01*
X0069820Y0035661D01*
X0069349Y0035924D01*
X0074713Y0035377D01*
X0075390Y0035226D01*
X0076023Y0034945D01*
X0076590Y0034546D01*
X0077069Y0034045D01*
X0077440Y0033459D01*
X0077689Y0032813D01*
X0077808Y0032130D01*
X0077792Y0031437D01*
X0077640Y0030761D01*
X0077360Y0030127D01*
X0076961Y0029560D01*
X0076459Y0029082D01*
X0076939Y0029539D02*
X0071641Y0029539D01*
X0071277Y0030038D02*
X0077297Y0030038D01*
X0077541Y0030536D02*
X0071025Y0030536D01*
X0070856Y0031035D02*
X0077702Y0031035D01*
X0077794Y0031534D02*
X0070770Y0031534D01*
X0070767Y0032032D02*
X0077806Y0032032D01*
X0077739Y0032531D02*
X0070848Y0032531D01*
X0070965Y0033029D02*
X0077606Y0033029D01*
X0077396Y0033528D02*
X0070988Y0033528D01*
X0070920Y0034026D02*
X0077080Y0034026D01*
X0076611Y0034525D02*
X0070752Y0034525D01*
X0070459Y0035023D02*
X0075847Y0035023D01*
X0073296Y0035522D02*
X0069984Y0035522D01*
X0068552Y0034026D02*
X0062842Y0034026D01*
X0062738Y0033897D02*
X0063173Y0034436D01*
X0063705Y0034881D01*
X0064313Y0035213D01*
X0064974Y0035420D01*
X0065664Y0035494D01*
X0066354Y0035432D01*
X0067019Y0035236D01*
X0067633Y0034915D01*
X0068172Y0034480D01*
X0068617Y0033948D01*
X0068949Y0033340D01*
X0069156Y0032678D01*
X0069230Y0031989D01*
X0069168Y0031299D01*
X0068973Y0030634D01*
X0068651Y0030020D01*
X0068216Y0029480D01*
X0067684Y0029036D01*
X0067076Y0028704D01*
X0066540Y0028546D01*
X0066045Y0028286D01*
X0065610Y0027934D01*
X0065252Y0027505D01*
X0064984Y0027014D01*
X0064818Y0026480D01*
X0064759Y0025924D01*
X0064809Y0025367D01*
X0062440Y0030577D01*
X0062233Y0031238D01*
X0062159Y0031927D01*
X0062221Y0032618D01*
X0062416Y0033283D01*
X0062738Y0033897D01*
X0062545Y0033528D02*
X0068846Y0033528D01*
X0069046Y0033029D02*
X0062342Y0033029D01*
X0062213Y0032531D02*
X0069172Y0032531D01*
X0069225Y0032032D02*
X0062169Y0032032D01*
X0062202Y0031534D02*
X0069189Y0031534D01*
X0069090Y0031035D02*
X0062297Y0031035D01*
X0062458Y0030536D02*
X0068922Y0030536D01*
X0068661Y0030038D02*
X0062685Y0030038D01*
X0062912Y0029539D02*
X0068264Y0029539D01*
X0067690Y0029041D02*
X0063139Y0029041D01*
X0063365Y0028542D02*
X0066534Y0028542D01*
X0065745Y0028044D02*
X0063592Y0028044D01*
X0063819Y0027545D02*
X0065285Y0027545D01*
X0065002Y0027047D02*
X0064045Y0027047D01*
X0064272Y0026548D02*
X0064839Y0026548D01*
X0064772Y0026050D02*
X0064499Y0026050D01*
X0064726Y0025551D02*
X0064793Y0025551D01*
X0073103Y0028542D02*
X0075438Y0028542D01*
X0075588Y0026548D02*
X0075793Y0026548D01*
X0081767Y0029539D02*
X0087565Y0029539D01*
X0087667Y0029666D02*
X0087232Y0029126D01*
X0086700Y0028682D01*
X0086092Y0028350D01*
X0085555Y0028191D01*
X0085060Y0027932D01*
X0084625Y0027580D01*
X0084267Y0027151D01*
X0084000Y0026660D01*
X0083834Y0026126D01*
X0083774Y0025570D01*
X0083825Y0025013D01*
X0081456Y0030222D01*
X0081249Y0030884D01*
X0081175Y0031573D01*
X0081237Y0032263D01*
X0081432Y0032928D01*
X0081754Y0033542D01*
X0082189Y0034082D01*
X0082720Y0034526D01*
X0083329Y0034858D01*
X0083990Y0035065D01*
X0084679Y0035139D01*
X0085370Y0035077D01*
X0086035Y0034882D01*
X0086649Y0034561D01*
X0087188Y0034126D01*
X0087633Y0033594D01*
X0087965Y0032985D01*
X0088172Y0032324D01*
X0088246Y0031635D01*
X0088184Y0030945D01*
X0087988Y0030280D01*
X0087667Y0029666D01*
X0087862Y0030038D02*
X0081540Y0030038D01*
X0081358Y0030536D02*
X0088064Y0030536D01*
X0088192Y0031035D02*
X0081233Y0031035D01*
X0081179Y0031534D02*
X0088237Y0031534D01*
X0088203Y0032032D02*
X0081216Y0032032D01*
X0081315Y0032531D02*
X0088107Y0032531D01*
X0087941Y0033029D02*
X0081485Y0033029D01*
X0081746Y0033528D02*
X0087669Y0033528D01*
X0087271Y0034026D02*
X0082144Y0034026D01*
X0082718Y0034525D02*
X0086693Y0034525D01*
X0085554Y0035023D02*
X0083856Y0035023D01*
X0088364Y0035570D02*
X0088836Y0035306D01*
X0089247Y0034956D01*
X0089582Y0034533D01*
X0089828Y0034052D01*
X0089975Y0033533D01*
X0090018Y0032994D01*
X0089955Y0032458D01*
X0089789Y0031944D01*
X0089773Y0031252D01*
X0089892Y0030569D01*
X0090141Y0029922D01*
X0090512Y0029337D01*
X0090991Y0028835D01*
X0091558Y0028437D01*
X0092191Y0028156D01*
X0092868Y0028005D01*
X0093560Y0027988D01*
X0094243Y0028107D01*
X0094890Y0028357D01*
X0095475Y0028728D01*
X0095977Y0029206D01*
X0096376Y0029773D01*
X0096656Y0030407D01*
X0096807Y0031083D01*
X0096824Y0031776D01*
X0096705Y0032459D01*
X0096455Y0033105D01*
X0096084Y0033690D01*
X0095606Y0034192D01*
X0095039Y0034591D01*
X0094405Y0034871D01*
X0093729Y0035023D01*
X0088364Y0035570D01*
X0088450Y0035522D02*
X0088835Y0035522D01*
X0089169Y0035023D02*
X0093726Y0035023D01*
X0095133Y0034525D02*
X0089586Y0034525D01*
X0089835Y0034026D02*
X0095764Y0034026D01*
X0096188Y0033528D02*
X0089975Y0033528D01*
X0090015Y0033029D02*
X0096485Y0033029D01*
X0096677Y0032531D02*
X0089964Y0032531D01*
X0089818Y0032032D02*
X0096779Y0032032D01*
X0096818Y0031534D02*
X0089779Y0031534D01*
X0089810Y0031035D02*
X0096797Y0031035D01*
X0096685Y0030536D02*
X0089904Y0030536D01*
X0090097Y0030038D02*
X0096493Y0030038D01*
X0096211Y0029539D02*
X0090384Y0029539D01*
X0090795Y0029041D02*
X0095804Y0029041D01*
X0095183Y0028542D02*
X0091407Y0028542D01*
X0092692Y0028044D02*
X0093882Y0028044D01*
X0095006Y0026467D02*
X0094545Y0026154D01*
X0094031Y0025937D01*
X0093485Y0025824D01*
X0092927Y0025821D01*
X0092379Y0025926D01*
X0091862Y0026136D01*
X0091397Y0026442D01*
X0091000Y0026834D01*
X0090408Y0027195D01*
X0089757Y0027433D01*
X0089072Y0027540D01*
X0088380Y0027511D01*
X0087706Y0027348D01*
X0087078Y0027057D01*
X0086518Y0026648D01*
X0086048Y0026138D01*
X0085688Y0025546D01*
X0085449Y0024895D01*
X0085342Y0024211D01*
X0085371Y0023518D01*
X0085534Y0022845D01*
X0085826Y0022216D01*
X0086234Y0021656D01*
X0086744Y0021187D01*
X0087336Y0020826D01*
X0087987Y0020587D01*
X0088672Y0020481D01*
X0089364Y0020509D01*
X0090038Y0020673D01*
X0090667Y0020964D01*
X0091226Y0021373D01*
X0091696Y0021883D01*
X0095006Y0026467D01*
X0094705Y0026050D02*
X0094298Y0026050D01*
X0094345Y0025551D02*
X0085691Y0025551D01*
X0085507Y0025053D02*
X0093985Y0025053D01*
X0093625Y0024554D02*
X0085396Y0024554D01*
X0085349Y0024056D02*
X0093265Y0024056D01*
X0092905Y0023557D02*
X0085369Y0023557D01*
X0085482Y0023059D02*
X0092545Y0023059D01*
X0092185Y0022560D02*
X0085666Y0022560D01*
X0085938Y0022062D02*
X0091825Y0022062D01*
X0091402Y0021563D02*
X0086335Y0021563D01*
X0086944Y0021065D02*
X0090804Y0021065D01*
X0089599Y0020566D02*
X0088123Y0020566D01*
X0085995Y0026050D02*
X0092073Y0026050D01*
X0091289Y0026548D02*
X0086426Y0026548D01*
X0087064Y0027047D02*
X0090650Y0027047D01*
X0087130Y0029041D02*
X0081993Y0029041D01*
X0082220Y0028542D02*
X0086445Y0028542D01*
X0085275Y0028044D02*
X0082447Y0028044D01*
X0082673Y0027545D02*
X0084596Y0027545D01*
X0084211Y0027047D02*
X0082900Y0027047D01*
X0083127Y0026548D02*
X0083965Y0026548D01*
X0083826Y0026050D02*
X0083353Y0026050D01*
X0083580Y0025551D02*
X0083776Y0025551D01*
X0083807Y0025053D02*
X0083821Y0025053D01*
X0068117Y0034525D02*
X0063279Y0034525D01*
X0063966Y0035023D02*
X0067426Y0035023D01*
D15*
X0009836Y0008247D02*
X0008815Y0009145D01*
X0008122Y0010314D01*
X0007824Y0011641D01*
X0007824Y0011648D01*
X0007859Y0011732D01*
X0007858Y0012583D01*
X0007938Y0013431D01*
X0007858Y0013689D01*
X0007819Y0104581D01*
X0007967Y0105354D01*
X0008731Y0107233D01*
X0009954Y0108851D01*
X0011555Y0110097D01*
X0013424Y0110886D01*
X0015433Y0111165D01*
X0015838Y0111141D01*
X0016030Y0111061D01*
X0016794Y0111062D01*
X0017553Y0110967D01*
X0017899Y0111063D01*
X0187144Y0111180D01*
X0187304Y0111124D01*
X0188253Y0111180D01*
X0188607Y0111181D01*
X0188905Y0111103D01*
X0189186Y0110923D01*
X0189398Y0110666D01*
X0189519Y0110355D01*
X0189532Y0110259D01*
X0189536Y0105715D01*
X0189055Y0105914D01*
X0189014Y0105914D01*
X0188977Y0105929D01*
X0188260Y0105915D01*
X0098679Y0105993D01*
X0097915Y0106267D01*
X0097670Y0106368D01*
X0097633Y0106368D01*
X0097492Y0106419D01*
X0096431Y0106368D01*
X0096166Y0106368D01*
X0096132Y0106354D01*
X0095982Y0106347D01*
X0095021Y0105894D01*
X0094776Y0105793D01*
X0094750Y0105767D01*
X0094615Y0105703D01*
X0093900Y0104917D01*
X0093713Y0104729D01*
X0093698Y0104695D01*
X0093598Y0104584D01*
X0093238Y0103584D01*
X0093137Y0103340D01*
X0093137Y0103302D01*
X0093086Y0103162D01*
X0093137Y0102100D01*
X0093137Y0101835D01*
X0093151Y0101801D01*
X0093158Y0101652D01*
X0093611Y0100690D01*
X0093713Y0100446D01*
X0093739Y0100419D01*
X0093803Y0100284D01*
X0094589Y0099569D01*
X0094776Y0099382D01*
X0094797Y0099373D01*
X0095196Y0098974D01*
X0095284Y0098938D01*
X0095354Y0098873D01*
X0095979Y0098649D01*
X0096592Y0098394D01*
X0096687Y0098394D01*
X0096777Y0098362D01*
X0097440Y0098394D01*
X0098795Y0098392D01*
X0098745Y0098342D01*
X0098154Y0097751D01*
X0097698Y0096649D01*
X0097698Y0044696D01*
X0097598Y0044597D01*
X0097544Y0044597D01*
X0096226Y0044051D01*
X0095218Y0043043D01*
X0094672Y0041726D01*
X0094672Y0040300D01*
X0095218Y0038982D01*
X0096226Y0037974D01*
X0097544Y0037428D01*
X0098970Y0037428D01*
X0100287Y0037974D01*
X0101295Y0038982D01*
X0101841Y0040300D01*
X0101841Y0040354D01*
X0102397Y0040910D01*
X0103241Y0041754D01*
X0103698Y0042857D01*
X0103698Y0060988D01*
X0104734Y0060558D01*
X0106239Y0060558D01*
X0107628Y0061134D01*
X0107834Y0061339D01*
X0129950Y0061339D01*
X0130156Y0061134D01*
X0131546Y0060558D01*
X0133050Y0060558D01*
X0134439Y0061134D01*
X0135503Y0062198D01*
X0136079Y0063587D01*
X0136079Y0065091D01*
X0135503Y0066481D01*
X0134439Y0067545D01*
X0133050Y0068120D01*
X0131546Y0068120D01*
X0130156Y0067545D01*
X0129950Y0067339D01*
X0107834Y0067339D01*
X0107628Y0067545D01*
X0106239Y0068120D01*
X0104734Y0068120D01*
X0103698Y0067691D01*
X0103698Y0093643D01*
X0118902Y0093643D01*
X0119107Y0093437D01*
X0120497Y0092861D01*
X0122001Y0092861D01*
X0123391Y0093437D01*
X0124454Y0094501D01*
X0125030Y0095890D01*
X0125030Y0097395D01*
X0124626Y0098370D01*
X0159734Y0098340D01*
X0159526Y0098253D01*
X0158462Y0097190D01*
X0157887Y0095800D01*
X0157887Y0094296D01*
X0158462Y0092906D01*
X0159526Y0091843D01*
X0160916Y0091267D01*
X0161206Y0091267D01*
X0170282Y0082191D01*
X0170282Y0051582D01*
X0157063Y0064801D01*
X0157063Y0065091D01*
X0156487Y0066481D01*
X0155424Y0067545D01*
X0154034Y0068120D01*
X0152530Y0068120D01*
X0151140Y0067545D01*
X0150076Y0066481D01*
X0149501Y0065091D01*
X0149501Y0063587D01*
X0150076Y0062198D01*
X0151140Y0061134D01*
X0152530Y0060558D01*
X0152820Y0060558D01*
X0170282Y0043097D01*
X0170282Y0010978D01*
X0170076Y0010773D01*
X0169501Y0009383D01*
X0169501Y0007879D01*
X0169550Y0007761D01*
X0155148Y0007748D01*
X0155188Y0007788D01*
X0155764Y0009178D01*
X0155764Y0010682D01*
X0155188Y0012072D01*
X0154124Y0013135D01*
X0152735Y0013711D01*
X0151231Y0013711D01*
X0150298Y0013325D01*
X0150298Y0051520D01*
X0150503Y0051725D01*
X0151079Y0053115D01*
X0151079Y0054619D01*
X0150503Y0056009D01*
X0149439Y0057072D01*
X0148050Y0057648D01*
X0146546Y0057648D01*
X0145156Y0057072D01*
X0144092Y0056009D01*
X0143517Y0054619D01*
X0143517Y0053115D01*
X0144092Y0051725D01*
X0144298Y0051520D01*
X0144298Y0009333D01*
X0144754Y0008231D01*
X0145246Y0007739D01*
X0142832Y0007736D01*
X0142831Y0007903D01*
X0142831Y0008696D01*
X0142830Y0008700D01*
X0142792Y0027831D01*
X0142716Y0091267D01*
X0142919Y0091469D01*
X0143494Y0092859D01*
X0143494Y0094363D01*
X0142919Y0095753D01*
X0141855Y0096816D01*
X0140465Y0097392D01*
X0138961Y0097392D01*
X0137572Y0096816D01*
X0136508Y0095753D01*
X0135932Y0094363D01*
X0135932Y0092859D01*
X0136508Y0091469D01*
X0136716Y0091261D01*
X0136791Y0028416D01*
X0136791Y0028414D01*
X0136792Y0027828D01*
X0136793Y0027223D01*
X0136793Y0027222D01*
X0136807Y0020361D01*
X0136173Y0020995D01*
X0134408Y0021726D01*
X0132499Y0021726D01*
X0130735Y0020995D01*
X0129384Y0019645D01*
X0128654Y0017881D01*
X0128654Y0009971D01*
X0129384Y0008207D01*
X0129867Y0007725D01*
X0127038Y0007722D01*
X0127523Y0008207D01*
X0128254Y0009971D01*
X0128254Y0017881D01*
X0127523Y0019645D01*
X0126173Y0020995D01*
X0124408Y0021726D01*
X0122499Y0021726D01*
X0120735Y0020995D01*
X0119384Y0019645D01*
X0118654Y0017881D01*
X0118654Y0009971D01*
X0119384Y0008207D01*
X0119876Y0007715D01*
X0117029Y0007713D01*
X0117523Y0008207D01*
X0118254Y0009971D01*
X0118254Y0017881D01*
X0117523Y0019645D01*
X0116173Y0020995D01*
X0114408Y0021726D01*
X0112499Y0021726D01*
X0110735Y0020995D01*
X0109384Y0019645D01*
X0108654Y0017881D01*
X0108654Y0009971D01*
X0109384Y0008207D01*
X0109885Y0007706D01*
X0107019Y0007704D01*
X0107523Y0008207D01*
X0108254Y0009971D01*
X0108254Y0017881D01*
X0107523Y0019645D01*
X0106173Y0020995D01*
X0104408Y0021726D01*
X0102499Y0021726D01*
X0100735Y0020995D01*
X0099384Y0019645D01*
X0098654Y0017881D01*
X0098654Y0009971D01*
X0099384Y0008207D01*
X0099894Y0007697D01*
X0097010Y0007695D01*
X0097523Y0008207D01*
X0098254Y0009971D01*
X0098254Y0017881D01*
X0097523Y0019645D01*
X0096173Y0020995D01*
X0094408Y0021726D01*
X0094111Y0021726D01*
X0096456Y0024973D01*
X0096859Y0025247D01*
X0096934Y0025635D01*
X0097165Y0025955D01*
X0097088Y0026436D01*
X0097179Y0026914D01*
X0096958Y0027241D01*
X0097078Y0027317D01*
X0097165Y0027332D01*
X0097216Y0027404D01*
X0097290Y0027451D01*
X0097309Y0027537D01*
X0097537Y0027861D01*
X0097824Y0028135D01*
X0097906Y0028167D01*
X0097922Y0028202D01*
X0098274Y0028155D01*
X0098486Y0027644D01*
X0099494Y0026635D01*
X0100811Y0026090D01*
X0102237Y0026090D01*
X0103555Y0026635D01*
X0104563Y0027644D01*
X0105109Y0028961D01*
X0105109Y0030387D01*
X0104563Y0031704D01*
X0103555Y0032713D01*
X0103500Y0032735D01*
X0103228Y0033090D01*
X0103210Y0033101D01*
X0103197Y0033117D01*
X0102694Y0033399D01*
X0102195Y0033688D01*
X0102174Y0033690D01*
X0102156Y0033701D01*
X0101583Y0033769D01*
X0098225Y0034214D01*
X0098152Y0034402D01*
X0098154Y0034490D01*
X0098093Y0034554D01*
X0098061Y0034636D01*
X0097981Y0034672D01*
X0097707Y0034959D01*
X0097495Y0035294D01*
X0097480Y0035380D01*
X0097408Y0035431D01*
X0097361Y0035505D01*
X0097275Y0035525D01*
X0096951Y0035753D01*
X0096677Y0036040D01*
X0096645Y0036122D01*
X0096565Y0036157D01*
X0096504Y0036221D01*
X0096416Y0036223D01*
X0096053Y0036384D01*
X0095729Y0036612D01*
X0095682Y0036686D01*
X0095596Y0036705D01*
X0095524Y0036756D01*
X0095437Y0036741D01*
X0095050Y0036828D01*
X0094819Y0036930D01*
X0094782Y0036976D01*
X0094695Y0036985D01*
X0094459Y0037090D01*
X0094294Y0037026D01*
X0094058Y0037050D01*
X0093348Y0037209D01*
X0093231Y0037134D01*
X0088994Y0037566D01*
X0088622Y0037773D01*
X0088182Y0037649D01*
X0088137Y0037653D01*
X0088137Y0099854D01*
X0087619Y0101104D01*
X0087084Y0101639D01*
X0087084Y0103355D01*
X0086256Y0105355D01*
X0084725Y0106886D01*
X0082725Y0107714D01*
X0080560Y0107714D01*
X0078560Y0106886D01*
X0077029Y0105355D01*
X0076201Y0103355D01*
X0076201Y0101190D01*
X0077029Y0099190D01*
X0078560Y0097659D01*
X0080560Y0096831D01*
X0081337Y0096831D01*
X0081337Y0036107D01*
X0081213Y0036039D01*
X0081125Y0036029D01*
X0081070Y0035961D01*
X0081014Y0035930D01*
X0081014Y0037237D01*
X0080468Y0038555D01*
X0080352Y0038671D01*
X0079973Y0039586D01*
X0079129Y0040430D01*
X0077694Y0041865D01*
X0077694Y0088750D01*
X0078300Y0089001D01*
X0079308Y0090009D01*
X0079854Y0091326D01*
X0079854Y0092752D01*
X0079308Y0094070D01*
X0078300Y0095078D01*
X0076982Y0095624D01*
X0075556Y0095624D01*
X0074239Y0095078D01*
X0073231Y0094070D01*
X0072685Y0092752D01*
X0072685Y0092698D01*
X0072151Y0092164D01*
X0071694Y0091061D01*
X0071694Y0040025D01*
X0072151Y0038923D01*
X0073514Y0037560D01*
X0069978Y0037920D01*
X0069606Y0038128D01*
X0069167Y0038003D01*
X0069121Y0038008D01*
X0069121Y0038036D01*
X0070569Y0039484D01*
X0071087Y0040733D01*
X0071087Y0096831D01*
X0072250Y0096831D01*
X0073305Y0097885D01*
X0073305Y0106660D01*
X0072250Y0107714D01*
X0063476Y0107714D01*
X0062421Y0106660D01*
X0062421Y0097885D01*
X0063476Y0096831D01*
X0064287Y0096831D01*
X0064287Y0042818D01*
X0063795Y0042326D01*
X0062839Y0041370D01*
X0062321Y0040120D01*
X0062321Y0036461D01*
X0062197Y0036393D01*
X0062110Y0036384D01*
X0062054Y0036315D01*
X0061977Y0036273D01*
X0061952Y0036189D01*
X0061704Y0035880D01*
X0061399Y0035626D01*
X0061315Y0035599D01*
X0061274Y0035521D01*
X0061207Y0035465D01*
X0061199Y0035377D01*
X0061015Y0035026D01*
X0060766Y0034717D01*
X0060689Y0034675D01*
X0060664Y0034591D01*
X0060609Y0034522D01*
X0060618Y0034435D01*
X0060507Y0034054D01*
X0060323Y0033703D01*
X0060255Y0033646D01*
X0060247Y0033559D01*
X0060206Y0033481D01*
X0060233Y0033397D01*
X0060197Y0033002D01*
X0060086Y0032621D01*
X0060030Y0032553D01*
X0060040Y0032465D01*
X0060015Y0032381D01*
X0060057Y0032303D01*
X0060099Y0031909D01*
X0060064Y0031514D01*
X0060023Y0031436D01*
X0060049Y0031352D01*
X0060042Y0031265D01*
X0060098Y0031197D01*
X0060216Y0030819D01*
X0060244Y0030559D01*
X0060223Y0030501D01*
X0060259Y0030421D01*
X0060286Y0030175D01*
X0060420Y0030067D01*
X0060522Y0029843D01*
X0060737Y0029154D01*
X0060866Y0029087D01*
X0062799Y0024835D01*
X0062844Y0024336D01*
X0063137Y0024092D01*
X0063295Y0023746D01*
X0063764Y0023570D01*
X0064149Y0023249D01*
X0064329Y0023265D01*
X0064332Y0023190D01*
X0064302Y0023107D01*
X0064339Y0023027D01*
X0064342Y0022939D01*
X0064407Y0022879D01*
X0064574Y0022520D01*
X0064667Y0022134D01*
X0064654Y0022047D01*
X0064706Y0021976D01*
X0064726Y0021891D01*
X0064801Y0021845D01*
X0065035Y0021525D01*
X0065071Y0021447D01*
X0064578Y0021608D01*
X0063831Y0021726D01*
X0063654Y0021726D01*
X0063654Y0014126D01*
X0068254Y0014126D01*
X0068254Y0017304D01*
X0068135Y0018050D01*
X0067902Y0018769D01*
X0067705Y0019154D01*
X0067764Y0019118D01*
X0067816Y0019047D01*
X0067903Y0019034D01*
X0067978Y0018988D01*
X0068064Y0019009D01*
X0068456Y0018947D01*
X0068828Y0018811D01*
X0068893Y0018751D01*
X0068981Y0018755D01*
X0069011Y0018744D01*
X0068654Y0017881D01*
X0068654Y0009971D01*
X0069384Y0008207D01*
X0069921Y0007670D01*
X0066983Y0007667D01*
X0067115Y0007799D01*
X0067559Y0008410D01*
X0067902Y0009083D01*
X0068135Y0009802D01*
X0068254Y0010548D01*
X0068254Y0013726D01*
X0063654Y0013726D01*
X0063654Y0014126D01*
X0063254Y0014126D01*
X0063254Y0021726D01*
X0063076Y0021726D01*
X0062330Y0021608D01*
X0061611Y0021374D01*
X0060938Y0021031D01*
X0060327Y0020587D01*
X0059792Y0020053D01*
X0059348Y0019442D01*
X0059005Y0018769D01*
X0058772Y0018050D01*
X0058654Y0017304D01*
X0058654Y0014126D01*
X0063253Y0014126D01*
X0063253Y0013726D01*
X0058654Y0013726D01*
X0058654Y0010548D01*
X0058772Y0009802D01*
X0059005Y0009083D01*
X0059348Y0008410D01*
X0059792Y0007799D01*
X0059930Y0007661D01*
X0056974Y0007658D01*
X0057523Y0008207D01*
X0058254Y0009971D01*
X0058254Y0017881D01*
X0057523Y0019645D01*
X0056173Y0020995D01*
X0054408Y0021726D01*
X0052499Y0021726D01*
X0050735Y0020995D01*
X0049384Y0019645D01*
X0048921Y0018526D01*
X0022592Y0018526D01*
X0022360Y0018763D01*
X0022360Y0022132D01*
X0021305Y0023187D01*
X0012531Y0023187D01*
X0011476Y0022132D01*
X0011476Y0013358D01*
X0012531Y0012303D01*
X0015809Y0012303D01*
X0016749Y0011343D01*
X0016759Y0011320D01*
X0017389Y0010690D01*
X0018012Y0010054D01*
X0018035Y0010044D01*
X0018053Y0010026D01*
X0018876Y0009685D01*
X0019695Y0009336D01*
X0019720Y0009336D01*
X0019743Y0009326D01*
X0020635Y0009326D01*
X0021525Y0009317D01*
X0021548Y0009326D01*
X0048921Y0009326D01*
X0049384Y0008207D01*
X0049940Y0007652D01*
X0011614Y0007617D01*
X0011084Y0007709D01*
X0009836Y0008247D01*
X0010370Y0008017D02*
X0049574Y0008017D01*
X0057333Y0008017D02*
X0059634Y0008017D01*
X0058832Y0009615D02*
X0058106Y0009615D01*
X0058254Y0011214D02*
X0058654Y0011214D01*
X0058654Y0012812D02*
X0058254Y0012812D01*
X0058254Y0014411D02*
X0058654Y0014411D01*
X0058654Y0016009D02*
X0058254Y0016009D01*
X0058254Y0017608D02*
X0058702Y0017608D01*
X0059228Y0019206D02*
X0057704Y0019206D01*
X0056363Y0020805D02*
X0060626Y0020805D01*
X0063254Y0020805D02*
X0063654Y0020805D01*
X0063654Y0019206D02*
X0063254Y0019206D01*
X0063254Y0017608D02*
X0063654Y0017608D01*
X0063654Y0016009D02*
X0063254Y0016009D01*
X0063254Y0014411D02*
X0063654Y0014411D01*
X0068254Y0014411D02*
X0068654Y0014411D01*
X0068654Y0016009D02*
X0068254Y0016009D01*
X0068205Y0017608D02*
X0068654Y0017608D01*
X0068654Y0012812D02*
X0068254Y0012812D01*
X0068254Y0011214D02*
X0068654Y0011214D01*
X0068801Y0009615D02*
X0068075Y0009615D01*
X0067273Y0008017D02*
X0069574Y0008017D01*
X0050544Y0020805D02*
X0022360Y0020805D01*
X0022360Y0019206D02*
X0049203Y0019206D01*
X0062451Y0025601D02*
X0007853Y0025601D01*
X0007852Y0027199D02*
X0013613Y0027199D01*
X0013373Y0027374D02*
X0014066Y0026870D01*
X0014829Y0026481D01*
X0015644Y0026217D01*
X0016490Y0026083D01*
X0016734Y0026083D01*
X0016734Y0031340D01*
X0017102Y0031340D01*
X0017102Y0026083D01*
X0017346Y0026083D01*
X0018192Y0026217D01*
X0019007Y0026481D01*
X0019770Y0026870D01*
X0020463Y0027374D01*
X0021069Y0027979D01*
X0021572Y0028672D01*
X0021961Y0029436D01*
X0022226Y0030250D01*
X0022360Y0031096D01*
X0022360Y0031340D01*
X0017102Y0031340D01*
X0017102Y0031709D01*
X0016734Y0031709D01*
X0016734Y0036966D01*
X0016490Y0036966D01*
X0015644Y0036832D01*
X0014829Y0036567D01*
X0014066Y0036179D01*
X0013373Y0035675D01*
X0012767Y0035069D01*
X0012264Y0034376D01*
X0011875Y0033613D01*
X0011610Y0032799D01*
X0011476Y0031953D01*
X0011476Y0031709D01*
X0016734Y0031709D01*
X0016734Y0031340D01*
X0011476Y0031340D01*
X0011476Y0031096D01*
X0011610Y0030250D01*
X0011875Y0029436D01*
X0012264Y0028672D01*
X0012767Y0027979D01*
X0013373Y0027374D01*
X0012200Y0028798D02*
X0007851Y0028798D01*
X0007851Y0030396D02*
X0011587Y0030396D01*
X0011483Y0031995D02*
X0007850Y0031995D01*
X0007849Y0033593D02*
X0011868Y0033593D01*
X0012890Y0035192D02*
X0007849Y0035192D01*
X0007848Y0036790D02*
X0015514Y0036790D01*
X0016734Y0036790D02*
X0017102Y0036790D01*
X0017102Y0036966D02*
X0017102Y0031709D01*
X0022360Y0031709D01*
X0022360Y0031953D01*
X0022226Y0032799D01*
X0021961Y0033613D01*
X0021572Y0034376D01*
X0021069Y0035069D01*
X0020463Y0035675D01*
X0019770Y0036179D01*
X0019007Y0036567D01*
X0018192Y0036832D01*
X0017346Y0036966D01*
X0017102Y0036966D01*
X0018322Y0036790D02*
X0062321Y0036790D01*
X0061102Y0035192D02*
X0020947Y0035192D01*
X0021968Y0033593D02*
X0060250Y0033593D01*
X0060090Y0031995D02*
X0022353Y0031995D01*
X0022249Y0030396D02*
X0060262Y0030396D01*
X0060997Y0028798D02*
X0021636Y0028798D01*
X0020223Y0027199D02*
X0061724Y0027199D01*
X0063178Y0024002D02*
X0007853Y0024002D01*
X0007854Y0022403D02*
X0011748Y0022403D01*
X0011476Y0020805D02*
X0007855Y0020805D01*
X0007856Y0019206D02*
X0011476Y0019206D01*
X0011476Y0017608D02*
X0007856Y0017608D01*
X0007857Y0016009D02*
X0011476Y0016009D01*
X0011476Y0014411D02*
X0007858Y0014411D01*
X0007880Y0012812D02*
X0012022Y0012812D01*
X0007920Y0011214D02*
X0016865Y0011214D01*
X0019040Y0009615D02*
X0008536Y0009615D01*
X0022089Y0022403D02*
X0064602Y0022403D01*
X0081014Y0036790D02*
X0081337Y0036790D01*
X0081337Y0038389D02*
X0080537Y0038389D01*
X0081337Y0039987D02*
X0079572Y0039987D01*
X0077974Y0041586D02*
X0081337Y0041586D01*
X0081337Y0043184D02*
X0077694Y0043184D01*
X0077694Y0044783D02*
X0081337Y0044783D01*
X0081337Y0046381D02*
X0077694Y0046381D01*
X0077694Y0047980D02*
X0081337Y0047980D01*
X0081337Y0049578D02*
X0077694Y0049578D01*
X0077694Y0051177D02*
X0081337Y0051177D01*
X0081337Y0052775D02*
X0077694Y0052775D01*
X0077694Y0054374D02*
X0081337Y0054374D01*
X0081337Y0055972D02*
X0077694Y0055972D01*
X0077694Y0057571D02*
X0081337Y0057571D01*
X0081337Y0059169D02*
X0077694Y0059169D01*
X0077694Y0060768D02*
X0081337Y0060768D01*
X0081337Y0062366D02*
X0077694Y0062366D01*
X0077694Y0063965D02*
X0081337Y0063965D01*
X0081337Y0065563D02*
X0077694Y0065563D01*
X0077694Y0067162D02*
X0081337Y0067162D01*
X0081337Y0068760D02*
X0077694Y0068760D01*
X0077694Y0070359D02*
X0081337Y0070359D01*
X0081337Y0071957D02*
X0077694Y0071957D01*
X0077694Y0073556D02*
X0081337Y0073556D01*
X0081337Y0075154D02*
X0077694Y0075154D01*
X0077694Y0076753D02*
X0081337Y0076753D01*
X0081337Y0078351D02*
X0077694Y0078351D01*
X0077694Y0079950D02*
X0081337Y0079950D01*
X0081337Y0081548D02*
X0077694Y0081548D01*
X0077694Y0083147D02*
X0081337Y0083147D01*
X0081337Y0084745D02*
X0077694Y0084745D01*
X0077694Y0086344D02*
X0081337Y0086344D01*
X0081337Y0087942D02*
X0077694Y0087942D01*
X0078840Y0089541D02*
X0081337Y0089541D01*
X0081337Y0091139D02*
X0079776Y0091139D01*
X0079854Y0092738D02*
X0081337Y0092738D01*
X0081337Y0094336D02*
X0079041Y0094336D01*
X0081337Y0095935D02*
X0071087Y0095935D01*
X0071087Y0094336D02*
X0073498Y0094336D01*
X0072685Y0092738D02*
X0071087Y0092738D01*
X0071087Y0091139D02*
X0071727Y0091139D01*
X0071694Y0089541D02*
X0071087Y0089541D01*
X0071087Y0087942D02*
X0071694Y0087942D01*
X0071694Y0086344D02*
X0071087Y0086344D01*
X0071087Y0084745D02*
X0071694Y0084745D01*
X0071694Y0083147D02*
X0071087Y0083147D01*
X0071087Y0081548D02*
X0071694Y0081548D01*
X0071694Y0079950D02*
X0071087Y0079950D01*
X0071087Y0078351D02*
X0071694Y0078351D01*
X0071694Y0076753D02*
X0071087Y0076753D01*
X0071087Y0075154D02*
X0071694Y0075154D01*
X0071694Y0073556D02*
X0071087Y0073556D01*
X0071087Y0071957D02*
X0071694Y0071957D01*
X0071694Y0070359D02*
X0071087Y0070359D01*
X0071087Y0068760D02*
X0071694Y0068760D01*
X0071694Y0067162D02*
X0071087Y0067162D01*
X0071087Y0065563D02*
X0071694Y0065563D01*
X0071694Y0063965D02*
X0071087Y0063965D01*
X0071087Y0062366D02*
X0071694Y0062366D01*
X0071694Y0060768D02*
X0071087Y0060768D01*
X0071087Y0059169D02*
X0071694Y0059169D01*
X0071694Y0057571D02*
X0071087Y0057571D01*
X0071087Y0055972D02*
X0071694Y0055972D01*
X0071694Y0054374D02*
X0071087Y0054374D01*
X0071087Y0052775D02*
X0071694Y0052775D01*
X0071694Y0051177D02*
X0071087Y0051177D01*
X0071087Y0049578D02*
X0071694Y0049578D01*
X0071694Y0047980D02*
X0071087Y0047980D01*
X0071087Y0046381D02*
X0071694Y0046381D01*
X0071694Y0044783D02*
X0071087Y0044783D01*
X0071087Y0043184D02*
X0071694Y0043184D01*
X0071694Y0041586D02*
X0071087Y0041586D01*
X0070778Y0039987D02*
X0071710Y0039987D01*
X0072685Y0038389D02*
X0069474Y0038389D01*
X0064287Y0043184D02*
X0007845Y0043184D01*
X0007845Y0044783D02*
X0064287Y0044783D01*
X0064287Y0046381D02*
X0007844Y0046381D01*
X0007843Y0047980D02*
X0064287Y0047980D01*
X0064287Y0049578D02*
X0007843Y0049578D01*
X0007842Y0051177D02*
X0064287Y0051177D01*
X0064287Y0052775D02*
X0007841Y0052775D01*
X0007841Y0054374D02*
X0064287Y0054374D01*
X0064287Y0055972D02*
X0007840Y0055972D01*
X0007839Y0057571D02*
X0064287Y0057571D01*
X0064287Y0059169D02*
X0007838Y0059169D01*
X0007838Y0060768D02*
X0064287Y0060768D01*
X0064287Y0062366D02*
X0007837Y0062366D01*
X0007836Y0063965D02*
X0064287Y0063965D01*
X0064287Y0065563D02*
X0007836Y0065563D01*
X0007835Y0067162D02*
X0064287Y0067162D01*
X0064287Y0068760D02*
X0007834Y0068760D01*
X0007834Y0070359D02*
X0064287Y0070359D01*
X0064287Y0071957D02*
X0007833Y0071957D01*
X0007832Y0073556D02*
X0064287Y0073556D01*
X0064287Y0075154D02*
X0007832Y0075154D01*
X0007831Y0076753D02*
X0064287Y0076753D01*
X0064287Y0078351D02*
X0007830Y0078351D01*
X0007830Y0079950D02*
X0064287Y0079950D01*
X0064287Y0081548D02*
X0015852Y0081548D01*
X0015505Y0081405D02*
X0016822Y0081950D01*
X0017831Y0082959D01*
X0018376Y0084276D01*
X0018376Y0084409D01*
X0022607Y0088640D01*
X0023252Y0088373D01*
X0024678Y0088373D01*
X0025996Y0088919D01*
X0027004Y0089927D01*
X0027550Y0091245D01*
X0027550Y0092670D01*
X0027004Y0093988D01*
X0025996Y0094996D01*
X0024678Y0095542D01*
X0023252Y0095542D01*
X0021935Y0094996D01*
X0021660Y0094721D01*
X0020849Y0094721D01*
X0019746Y0094265D01*
X0018902Y0093421D01*
X0014038Y0088556D01*
X0012762Y0088028D01*
X0011754Y0087019D01*
X0011208Y0085702D01*
X0011208Y0084276D01*
X0011754Y0082959D01*
X0012762Y0081950D01*
X0014079Y0081405D01*
X0015505Y0081405D01*
X0013732Y0081548D02*
X0007829Y0081548D01*
X0007828Y0083147D02*
X0011676Y0083147D01*
X0011208Y0084745D02*
X0007828Y0084745D01*
X0007827Y0086344D02*
X0011474Y0086344D01*
X0012677Y0087942D02*
X0007826Y0087942D01*
X0007826Y0089541D02*
X0015023Y0089541D01*
X0016621Y0091139D02*
X0007825Y0091139D01*
X0007824Y0092738D02*
X0018220Y0092738D01*
X0019920Y0094336D02*
X0007823Y0094336D01*
X0007823Y0095935D02*
X0064287Y0095935D01*
X0064287Y0094336D02*
X0026655Y0094336D01*
X0027522Y0092738D02*
X0064287Y0092738D01*
X0064287Y0091139D02*
X0027506Y0091139D01*
X0026618Y0089541D02*
X0064287Y0089541D01*
X0064287Y0087942D02*
X0021909Y0087942D01*
X0020311Y0086344D02*
X0064287Y0086344D01*
X0064287Y0084745D02*
X0018712Y0084745D01*
X0017909Y0083147D02*
X0064287Y0083147D01*
X0062773Y0097534D02*
X0007822Y0097534D01*
X0007821Y0099132D02*
X0062421Y0099132D01*
X0062421Y0100731D02*
X0007821Y0100731D01*
X0007820Y0102329D02*
X0062421Y0102329D01*
X0062421Y0103928D02*
X0007819Y0103928D01*
X0008037Y0105526D02*
X0062421Y0105526D01*
X0062886Y0107125D02*
X0008687Y0107125D01*
X0009858Y0108723D02*
X0189534Y0108723D01*
X0189535Y0107125D02*
X0084148Y0107125D01*
X0086085Y0105526D02*
X0094454Y0105526D01*
X0093362Y0103928D02*
X0086847Y0103928D01*
X0087084Y0102329D02*
X0093126Y0102329D01*
X0093592Y0100731D02*
X0087774Y0100731D01*
X0088137Y0099132D02*
X0095038Y0099132D01*
X0098064Y0097534D02*
X0088137Y0097534D01*
X0088137Y0095935D02*
X0097698Y0095935D01*
X0097698Y0094336D02*
X0088137Y0094336D01*
X0088137Y0092738D02*
X0097698Y0092738D01*
X0097698Y0091139D02*
X0088137Y0091139D01*
X0088137Y0089541D02*
X0097698Y0089541D01*
X0097698Y0087942D02*
X0088137Y0087942D01*
X0088137Y0086344D02*
X0097698Y0086344D01*
X0097698Y0084745D02*
X0088137Y0084745D01*
X0088137Y0083147D02*
X0097698Y0083147D01*
X0097698Y0081548D02*
X0088137Y0081548D01*
X0088137Y0079950D02*
X0097698Y0079950D01*
X0097698Y0078351D02*
X0088137Y0078351D01*
X0088137Y0076753D02*
X0097698Y0076753D01*
X0097698Y0075154D02*
X0088137Y0075154D01*
X0088137Y0073556D02*
X0097698Y0073556D01*
X0097698Y0071957D02*
X0088137Y0071957D01*
X0088137Y0070359D02*
X0097698Y0070359D01*
X0097698Y0068760D02*
X0088137Y0068760D01*
X0088137Y0067162D02*
X0097698Y0067162D01*
X0097698Y0065563D02*
X0088137Y0065563D01*
X0088137Y0063965D02*
X0097698Y0063965D01*
X0097698Y0062366D02*
X0088137Y0062366D01*
X0088137Y0060768D02*
X0097698Y0060768D01*
X0097698Y0059169D02*
X0088137Y0059169D01*
X0088137Y0057571D02*
X0097698Y0057571D01*
X0097698Y0055972D02*
X0088137Y0055972D01*
X0088137Y0054374D02*
X0097698Y0054374D01*
X0097698Y0052775D02*
X0088137Y0052775D01*
X0088137Y0051177D02*
X0097698Y0051177D01*
X0097698Y0049578D02*
X0088137Y0049578D01*
X0088137Y0047980D02*
X0097698Y0047980D01*
X0097698Y0046381D02*
X0088137Y0046381D01*
X0088137Y0044783D02*
X0097698Y0044783D01*
X0095359Y0043184D02*
X0088137Y0043184D01*
X0088137Y0041586D02*
X0094672Y0041586D01*
X0094802Y0039987D02*
X0088137Y0039987D01*
X0088137Y0038389D02*
X0095812Y0038389D01*
X0095218Y0036790D02*
X0136781Y0036790D01*
X0136783Y0035192D02*
X0097560Y0035192D01*
X0102359Y0033593D02*
X0136785Y0033593D01*
X0136787Y0031995D02*
X0104273Y0031995D01*
X0105105Y0030396D02*
X0136789Y0030396D01*
X0136791Y0028798D02*
X0105041Y0028798D01*
X0104118Y0027199D02*
X0136793Y0027199D01*
X0136797Y0025601D02*
X0096927Y0025601D01*
X0096986Y0027199D02*
X0098931Y0027199D01*
X0095755Y0024002D02*
X0136800Y0024002D01*
X0136803Y0022403D02*
X0094600Y0022403D01*
X0096363Y0020805D02*
X0100544Y0020805D01*
X0099203Y0019206D02*
X0097704Y0019206D01*
X0098254Y0017608D02*
X0098654Y0017608D01*
X0098654Y0016009D02*
X0098254Y0016009D01*
X0098254Y0014411D02*
X0098654Y0014411D01*
X0098654Y0012812D02*
X0098254Y0012812D01*
X0098254Y0011214D02*
X0098654Y0011214D01*
X0098801Y0009615D02*
X0098106Y0009615D01*
X0097333Y0008017D02*
X0099574Y0008017D01*
X0107333Y0008017D02*
X0109574Y0008017D01*
X0108801Y0009615D02*
X0108106Y0009615D01*
X0108254Y0011214D02*
X0108654Y0011214D01*
X0108654Y0012812D02*
X0108254Y0012812D01*
X0108254Y0014411D02*
X0108654Y0014411D01*
X0108654Y0016009D02*
X0108254Y0016009D01*
X0108254Y0017608D02*
X0108654Y0017608D01*
X0109203Y0019206D02*
X0107704Y0019206D01*
X0106363Y0020805D02*
X0110544Y0020805D01*
X0116363Y0020805D02*
X0120544Y0020805D01*
X0119203Y0019206D02*
X0117704Y0019206D01*
X0118254Y0017608D02*
X0118654Y0017608D01*
X0118654Y0016009D02*
X0118254Y0016009D01*
X0118254Y0014411D02*
X0118654Y0014411D01*
X0118654Y0012812D02*
X0118254Y0012812D01*
X0118254Y0011214D02*
X0118654Y0011214D01*
X0118801Y0009615D02*
X0118106Y0009615D01*
X0117333Y0008017D02*
X0119574Y0008017D01*
X0127333Y0008017D02*
X0129574Y0008017D01*
X0128801Y0009615D02*
X0128106Y0009615D01*
X0128254Y0011214D02*
X0128654Y0011214D01*
X0128654Y0012812D02*
X0128254Y0012812D01*
X0128254Y0014411D02*
X0128654Y0014411D01*
X0128654Y0016009D02*
X0128254Y0016009D01*
X0128254Y0017608D02*
X0128654Y0017608D01*
X0129203Y0019206D02*
X0127704Y0019206D01*
X0126363Y0020805D02*
X0130544Y0020805D01*
X0136363Y0020805D02*
X0136806Y0020805D01*
X0142806Y0020805D02*
X0144298Y0020805D01*
X0144298Y0022403D02*
X0142803Y0022403D01*
X0142800Y0024002D02*
X0144298Y0024002D01*
X0144298Y0025601D02*
X0142797Y0025601D01*
X0142793Y0027199D02*
X0144298Y0027199D01*
X0144298Y0028798D02*
X0142791Y0028798D01*
X0142789Y0030396D02*
X0144298Y0030396D01*
X0144298Y0031995D02*
X0142787Y0031995D01*
X0142785Y0033593D02*
X0144298Y0033593D01*
X0144298Y0035192D02*
X0142783Y0035192D01*
X0142781Y0036790D02*
X0144298Y0036790D01*
X0144298Y0038389D02*
X0142779Y0038389D01*
X0142778Y0039987D02*
X0144298Y0039987D01*
X0144298Y0041586D02*
X0142776Y0041586D01*
X0142774Y0043184D02*
X0144298Y0043184D01*
X0144298Y0044783D02*
X0142772Y0044783D01*
X0142770Y0046381D02*
X0144298Y0046381D01*
X0144298Y0047980D02*
X0142768Y0047980D01*
X0142766Y0049578D02*
X0144298Y0049578D01*
X0144298Y0051177D02*
X0142764Y0051177D01*
X0142762Y0052775D02*
X0143657Y0052775D01*
X0143517Y0054374D02*
X0142760Y0054374D01*
X0142758Y0055972D02*
X0144077Y0055972D01*
X0142757Y0057571D02*
X0146359Y0057571D01*
X0148236Y0057571D02*
X0155808Y0057571D01*
X0154209Y0059169D02*
X0142755Y0059169D01*
X0142753Y0060768D02*
X0152024Y0060768D01*
X0150007Y0062366D02*
X0142751Y0062366D01*
X0142749Y0063965D02*
X0149501Y0063965D01*
X0149696Y0065563D02*
X0142747Y0065563D01*
X0142745Y0067162D02*
X0150757Y0067162D01*
X0155807Y0067162D02*
X0170282Y0067162D01*
X0170282Y0068760D02*
X0142743Y0068760D01*
X0142741Y0070359D02*
X0170282Y0070359D01*
X0170282Y0071957D02*
X0142739Y0071957D01*
X0142737Y0073556D02*
X0170282Y0073556D01*
X0170282Y0075154D02*
X0142735Y0075154D01*
X0142734Y0076753D02*
X0170282Y0076753D01*
X0170282Y0078351D02*
X0142732Y0078351D01*
X0142730Y0079950D02*
X0170282Y0079950D01*
X0170282Y0081548D02*
X0142728Y0081548D01*
X0142726Y0083147D02*
X0169326Y0083147D01*
X0167728Y0084745D02*
X0142724Y0084745D01*
X0142722Y0086344D02*
X0166129Y0086344D01*
X0164531Y0087942D02*
X0142720Y0087942D01*
X0142718Y0089541D02*
X0162932Y0089541D01*
X0161334Y0091139D02*
X0142716Y0091139D01*
X0143444Y0092738D02*
X0158630Y0092738D01*
X0157887Y0094336D02*
X0143494Y0094336D01*
X0142737Y0095935D02*
X0157942Y0095935D01*
X0158806Y0097534D02*
X0124972Y0097534D01*
X0125030Y0095935D02*
X0136690Y0095935D01*
X0135932Y0094336D02*
X0124290Y0094336D01*
X0135982Y0092738D02*
X0103698Y0092738D01*
X0103698Y0091139D02*
X0136716Y0091139D01*
X0136718Y0089541D02*
X0103698Y0089541D01*
X0103698Y0087942D02*
X0136720Y0087942D01*
X0136722Y0086344D02*
X0103698Y0086344D01*
X0103698Y0084745D02*
X0136724Y0084745D01*
X0136726Y0083147D02*
X0103698Y0083147D01*
X0103698Y0081548D02*
X0136728Y0081548D01*
X0136730Y0079950D02*
X0103698Y0079950D01*
X0103698Y0078351D02*
X0136732Y0078351D01*
X0136734Y0076753D02*
X0103698Y0076753D01*
X0103698Y0075154D02*
X0136735Y0075154D01*
X0136737Y0073556D02*
X0103698Y0073556D01*
X0103698Y0071957D02*
X0136739Y0071957D01*
X0136741Y0070359D02*
X0103698Y0070359D01*
X0103698Y0068760D02*
X0136743Y0068760D01*
X0136745Y0067162D02*
X0134822Y0067162D01*
X0135883Y0065563D02*
X0136747Y0065563D01*
X0136749Y0063965D02*
X0136079Y0063965D01*
X0135573Y0062366D02*
X0136751Y0062366D01*
X0136753Y0060768D02*
X0133555Y0060768D01*
X0131040Y0060768D02*
X0106744Y0060768D01*
X0104229Y0060768D02*
X0103698Y0060768D01*
X0103698Y0059169D02*
X0136755Y0059169D01*
X0136757Y0057571D02*
X0103698Y0057571D01*
X0103698Y0055972D02*
X0136758Y0055972D01*
X0136760Y0054374D02*
X0103698Y0054374D01*
X0103698Y0052775D02*
X0136762Y0052775D01*
X0136764Y0051177D02*
X0103698Y0051177D01*
X0103698Y0049578D02*
X0136766Y0049578D01*
X0136768Y0047980D02*
X0103698Y0047980D01*
X0103698Y0046381D02*
X0136770Y0046381D01*
X0136772Y0044783D02*
X0103698Y0044783D01*
X0103698Y0043184D02*
X0136774Y0043184D01*
X0136776Y0041586D02*
X0103072Y0041586D01*
X0101711Y0039987D02*
X0136778Y0039987D01*
X0136779Y0038389D02*
X0100702Y0038389D01*
X0063054Y0041586D02*
X0007846Y0041586D01*
X0007847Y0039987D02*
X0062321Y0039987D01*
X0062321Y0038389D02*
X0007847Y0038389D01*
X0016734Y0035192D02*
X0017102Y0035192D01*
X0017102Y0033593D02*
X0016734Y0033593D01*
X0016734Y0031995D02*
X0017102Y0031995D01*
X0017102Y0030396D02*
X0016734Y0030396D01*
X0016734Y0028798D02*
X0017102Y0028798D01*
X0017102Y0027199D02*
X0016734Y0027199D01*
X0072953Y0097534D02*
X0078863Y0097534D01*
X0077087Y0099132D02*
X0073305Y0099132D01*
X0073305Y0100731D02*
X0076391Y0100731D01*
X0076201Y0102329D02*
X0073305Y0102329D01*
X0073305Y0103928D02*
X0076438Y0103928D01*
X0077200Y0105526D02*
X0073305Y0105526D01*
X0072840Y0107125D02*
X0079137Y0107125D01*
X0012087Y0110322D02*
X0189524Y0110322D01*
X0170282Y0065563D02*
X0156868Y0065563D01*
X0157899Y0063965D02*
X0170282Y0063965D01*
X0170282Y0062366D02*
X0159498Y0062366D01*
X0161096Y0060768D02*
X0170282Y0060768D01*
X0170282Y0059169D02*
X0162695Y0059169D01*
X0164293Y0057571D02*
X0170282Y0057571D01*
X0170282Y0055972D02*
X0165892Y0055972D01*
X0167490Y0054374D02*
X0170282Y0054374D01*
X0170282Y0052775D02*
X0169089Y0052775D01*
X0163800Y0049578D02*
X0150298Y0049578D01*
X0150298Y0047980D02*
X0165399Y0047980D01*
X0166997Y0046381D02*
X0150298Y0046381D01*
X0150298Y0044783D02*
X0168596Y0044783D01*
X0170194Y0043184D02*
X0150298Y0043184D01*
X0150298Y0041586D02*
X0170282Y0041586D01*
X0170282Y0039987D02*
X0150298Y0039987D01*
X0150298Y0038389D02*
X0170282Y0038389D01*
X0170282Y0036790D02*
X0150298Y0036790D01*
X0150298Y0035192D02*
X0170282Y0035192D01*
X0170282Y0033593D02*
X0150298Y0033593D01*
X0150298Y0031995D02*
X0170282Y0031995D01*
X0170282Y0030396D02*
X0150298Y0030396D01*
X0150298Y0028798D02*
X0170282Y0028798D01*
X0170282Y0027199D02*
X0150298Y0027199D01*
X0150298Y0025601D02*
X0170282Y0025601D01*
X0170282Y0024002D02*
X0150298Y0024002D01*
X0150298Y0022403D02*
X0170282Y0022403D01*
X0170282Y0020805D02*
X0150298Y0020805D01*
X0150298Y0019206D02*
X0170282Y0019206D01*
X0170282Y0017608D02*
X0150298Y0017608D01*
X0150298Y0016009D02*
X0170282Y0016009D01*
X0170282Y0014411D02*
X0150298Y0014411D01*
X0154447Y0012812D02*
X0170282Y0012812D01*
X0170282Y0011214D02*
X0155543Y0011214D01*
X0155764Y0009615D02*
X0169597Y0009615D01*
X0169501Y0008017D02*
X0155283Y0008017D01*
X0144968Y0008017D02*
X0142831Y0008017D01*
X0142828Y0009615D02*
X0144298Y0009615D01*
X0144298Y0011214D02*
X0142825Y0011214D01*
X0142822Y0012812D02*
X0144298Y0012812D01*
X0144298Y0014411D02*
X0142819Y0014411D01*
X0142815Y0016009D02*
X0144298Y0016009D01*
X0144298Y0017608D02*
X0142812Y0017608D01*
X0142809Y0019206D02*
X0144298Y0019206D01*
X0150298Y0051177D02*
X0162202Y0051177D01*
X0160603Y0052775D02*
X0150938Y0052775D01*
X0151079Y0054374D02*
X0159005Y0054374D01*
X0157406Y0055972D02*
X0150518Y0055972D01*
D16*
X0063454Y0017627D02*
X0063454Y0013926D01*
X0063454Y0017627D02*
X0059202Y0021879D01*
X0059162Y0021879D01*
X0056091Y0024950D01*
X0023414Y0024950D01*
X0016918Y0031524D01*
X0016918Y0017745D02*
X0020658Y0013926D01*
X0053454Y0013926D01*
D17*
X0105487Y0064339D03*
X0132298Y0064339D03*
X0147298Y0053867D03*
X0153282Y0064339D03*
X0139713Y0093611D03*
X0121249Y0096643D03*
X0096918Y0102587D03*
X0161668Y0095048D03*
X0188296Y0102115D03*
X0178296Y0024713D03*
X0173282Y0008631D03*
X0151983Y0009930D03*
X0011485Y0090383D03*
D18*
X0014792Y0084989D03*
X0023099Y0085501D03*
X0023965Y0091957D03*
X0050580Y0077509D03*
X0076269Y0092039D03*
X0060383Y0058769D03*
X0077430Y0036524D03*
X0098257Y0041013D03*
X0101524Y0029674D03*
X0139831Y0005186D03*
X0154517Y0031170D03*
D19*
X0139792Y0027824D02*
X0139713Y0093611D01*
X0121249Y0096643D02*
X0101288Y0096643D01*
X0100698Y0096052D01*
X0100698Y0043454D01*
X0098257Y0041013D01*
X0093312Y0031839D02*
X0101209Y0030792D01*
X0101524Y0029674D01*
X0077509Y0032603D02*
X0077430Y0036524D01*
X0077430Y0037887D01*
X0074694Y0040622D01*
X0074694Y0090465D01*
X0076269Y0092039D01*
X0105487Y0064339D02*
X0132298Y0064339D01*
X0147298Y0053867D02*
X0147298Y0009930D01*
X0151983Y0009930D01*
X0139831Y0008099D02*
X0139831Y0007902D01*
X0139792Y0027824D01*
X0139831Y0007902D02*
X0139831Y0005186D01*
X0173282Y0008631D02*
X0173282Y0044339D01*
X0153282Y0064339D01*
X0173282Y0083434D02*
X0173282Y0044339D01*
X0173282Y0083434D02*
X0161668Y0095048D01*
X0077509Y0032603D02*
X0074296Y0032194D01*
X0014792Y0084989D02*
X0014792Y0085068D01*
X0021446Y0091721D01*
X0023729Y0091721D01*
X0023965Y0091957D01*
D20*
X0096918Y0102587D02*
X0097351Y0102194D01*
X0188296Y0102115D01*
X0188375Y0098139D01*
X0187824Y0040304D01*
X0186957Y0039438D01*
X0178493Y0039438D01*
X0178296Y0039241D01*
X0178296Y0024713D01*
D21*
X0089083Y0024005D02*
X0089083Y0023751D01*
X0084261Y0018929D01*
X0084261Y0014734D01*
X0083454Y0013926D01*
X0073454Y0013926D02*
X0073395Y0013984D01*
X0073395Y0021921D01*
X0070957Y0024359D01*
X0070068Y0024359D01*
X0065721Y0031761D02*
X0065721Y0039444D01*
X0067687Y0041409D01*
X0067687Y0102096D01*
X0067863Y0102272D01*
X0081643Y0102272D02*
X0084737Y0099178D01*
X0084737Y0031406D01*
M02*
