%
M48
M72
T01C0.0197
T02C0.0236
T03C0.0394
T04C0.0400
%
T01
X7743Y3652
X9826Y4101
X10152Y2967
X13983Y519
X15452Y3117
X6038Y5877
X5058Y7751
X7627Y9204
X2397Y9196
X2310Y8550
X1479Y8499
T02
X1149Y9038
X9692Y10259
X12125Y9664
X13971Y9361
X16167Y9505
X18830Y10211
X15328Y6434
X14730Y5387
X13230Y6434
X10549Y6434
X17830Y2471
X17328Y863
X15198Y993
T03
X1692Y1774
X1692Y3152
X6786Y10227
X8164Y10227
T04
X8345Y1393
X7345Y1393
X6345Y1393
X5345Y1393
X9345Y1393
X10345Y1393
X11345Y1393
X12345Y1393
X13345Y1393
M30
