G75*
%MOIN*%
%OFA0B0*%
%FSLAX25Y25*%
%IPPOS*%
%LPD*%
%AMOC8*
5,1,8,0,0,1.08239X$1,22.5*
%
%ADD10C,0.00600*%
%ADD11C,0.00200*%
%ADD12C,0.00400*%
%ADD13C,0.00800*%
%ADD14C,0.00500*%
%ADD15C,0.02400*%
%ADD16C,0.02000*%
%ADD17C,0.00300*%
%ADD18C,0.00891*%
D10*
X0048454Y0011426D02*
X0050954Y0008926D01*
X0055954Y0008926D01*
X0058454Y0011426D01*
X0060954Y0008926D01*
X0065954Y0008926D01*
X0068454Y0011426D01*
X0068454Y0016426D01*
X0065954Y0018926D01*
X0060954Y0018926D01*
X0058454Y0016426D01*
X0058454Y0011426D01*
X0058454Y0016426D02*
X0055954Y0018926D01*
X0050954Y0018926D01*
X0048454Y0016426D01*
X0048454Y0011426D01*
X0068454Y0011426D02*
X0070954Y0008926D01*
X0075954Y0008926D01*
X0078454Y0011426D01*
X0080954Y0008926D01*
X0085954Y0008926D01*
X0088454Y0011426D01*
X0090954Y0008926D01*
X0095954Y0008926D01*
X0098454Y0011426D01*
X0098454Y0016426D01*
X0095954Y0018926D01*
X0090954Y0018926D01*
X0088454Y0016426D01*
X0088454Y0011426D01*
X0088454Y0016426D02*
X0085954Y0018926D01*
X0080954Y0018926D01*
X0078454Y0016426D01*
X0078454Y0011426D01*
X0078454Y0016426D02*
X0075954Y0018926D01*
X0070954Y0018926D01*
X0068454Y0016426D01*
X0083800Y0021440D02*
X0083800Y0024843D01*
X0085501Y0024843D01*
X0086069Y0024276D01*
X0086069Y0023142D01*
X0085501Y0022574D01*
X0083800Y0022574D01*
X0084934Y0022574D02*
X0086069Y0021440D01*
X0087483Y0021440D02*
X0089752Y0021440D01*
X0091166Y0022574D02*
X0092301Y0021440D01*
X0093435Y0022574D01*
X0093435Y0024843D01*
X0091166Y0024843D02*
X0091166Y0022574D01*
X0088617Y0023142D02*
X0087483Y0023142D01*
X0087483Y0024843D02*
X0087483Y0021440D01*
X0087483Y0024843D02*
X0089752Y0024843D01*
X0091780Y0026240D02*
X0091780Y0028509D01*
X0092914Y0029643D01*
X0094049Y0028509D01*
X0094049Y0026240D01*
X0095463Y0026240D02*
X0096598Y0026240D01*
X0096030Y0026240D02*
X0096030Y0029643D01*
X0095463Y0029643D01*
X0094049Y0027942D02*
X0091780Y0027942D01*
X0086682Y0027942D02*
X0086682Y0026240D01*
X0086682Y0027942D02*
X0086115Y0028509D01*
X0084414Y0028509D01*
X0084414Y0026240D01*
X0082999Y0026240D02*
X0081298Y0026240D01*
X0080731Y0026807D01*
X0081298Y0027374D01*
X0082999Y0027374D01*
X0082999Y0027942D02*
X0082999Y0026240D01*
X0082999Y0027942D02*
X0082432Y0028509D01*
X0081298Y0028509D01*
X0079363Y0028509D02*
X0078796Y0028509D01*
X0077661Y0027374D01*
X0077661Y0026240D02*
X0077661Y0028509D01*
X0076247Y0028509D02*
X0074545Y0028509D01*
X0073978Y0027942D01*
X0073978Y0026807D01*
X0074545Y0026240D01*
X0076247Y0026240D01*
X0076247Y0029643D01*
X0072564Y0027942D02*
X0072564Y0027374D01*
X0070295Y0027374D01*
X0070295Y0026807D02*
X0070295Y0027942D01*
X0070862Y0028509D01*
X0071997Y0028509D01*
X0072564Y0027942D01*
X0071997Y0026240D02*
X0070862Y0026240D01*
X0070295Y0026807D01*
X0068881Y0027374D02*
X0068881Y0029643D01*
X0068881Y0027374D02*
X0067746Y0026240D01*
X0066612Y0027374D01*
X0066612Y0029643D01*
X0097919Y0026807D02*
X0098486Y0027374D01*
X0100187Y0027374D01*
X0100187Y0027942D02*
X0100187Y0026240D01*
X0098486Y0026240D01*
X0097919Y0026807D01*
X0098486Y0028509D02*
X0099620Y0028509D01*
X0100187Y0027942D01*
X0102736Y0028509D02*
X0102736Y0025673D01*
X0102169Y0025106D01*
X0101602Y0025106D01*
X0100801Y0024276D02*
X0100234Y0024843D01*
X0099100Y0024843D01*
X0098533Y0024276D01*
X0098533Y0022007D01*
X0100801Y0024276D01*
X0100801Y0022007D01*
X0100234Y0021440D01*
X0099100Y0021440D01*
X0098533Y0022007D01*
X0102216Y0022007D02*
X0102783Y0022007D01*
X0102783Y0021440D01*
X0102216Y0021440D01*
X0102216Y0022007D01*
X0104057Y0021440D02*
X0106326Y0021440D01*
X0105192Y0021440D02*
X0105192Y0024843D01*
X0104057Y0023709D01*
X0107740Y0023142D02*
X0108875Y0023709D01*
X0109442Y0023709D01*
X0110009Y0023142D01*
X0110009Y0022007D01*
X0109442Y0021440D01*
X0108308Y0021440D01*
X0107740Y0022007D01*
X0107740Y0023142D02*
X0107740Y0024843D01*
X0110009Y0024843D01*
X0109442Y0026240D02*
X0108308Y0026240D01*
X0107740Y0026807D01*
X0107740Y0027942D01*
X0108308Y0028509D01*
X0109442Y0028509D01*
X0110009Y0027942D01*
X0110009Y0027374D01*
X0107740Y0027374D01*
X0106326Y0026807D02*
X0106326Y0027942D01*
X0105759Y0028509D01*
X0104057Y0028509D01*
X0104057Y0029643D02*
X0104057Y0026240D01*
X0105759Y0026240D01*
X0106326Y0026807D01*
X0102736Y0029643D02*
X0102736Y0030210D01*
X0111424Y0027942D02*
X0111424Y0026807D01*
X0111991Y0026240D01*
X0113692Y0026240D01*
X0113692Y0025673D02*
X0113692Y0028509D01*
X0111991Y0028509D01*
X0111424Y0027942D01*
X0112558Y0025106D02*
X0113125Y0025106D01*
X0113692Y0025673D01*
X0115107Y0026807D02*
X0115674Y0026240D01*
X0116808Y0026240D01*
X0117375Y0026807D01*
X0117375Y0027942D01*
X0116808Y0028509D01*
X0115674Y0028509D01*
X0115107Y0027942D01*
X0115107Y0026807D01*
X0118790Y0028509D02*
X0119924Y0026240D01*
X0121058Y0028509D01*
X0122473Y0028509D02*
X0123040Y0028509D01*
X0123040Y0026240D01*
X0122473Y0026240D02*
X0123607Y0026240D01*
X0124928Y0026807D02*
X0124928Y0027942D01*
X0125496Y0028509D01*
X0127197Y0028509D01*
X0127197Y0026240D02*
X0125496Y0026240D01*
X0124928Y0026807D01*
X0123040Y0029643D02*
X0123040Y0030210D01*
X0120954Y0018926D02*
X0125954Y0018926D01*
X0128454Y0016426D01*
X0130954Y0018926D01*
X0135954Y0018926D01*
X0138454Y0016426D01*
X0138454Y0011426D01*
X0135954Y0008926D01*
X0130954Y0008926D01*
X0128454Y0011426D01*
X0125954Y0008926D01*
X0120954Y0008926D01*
X0118454Y0011426D01*
X0115954Y0008926D01*
X0110954Y0008926D01*
X0108454Y0011426D01*
X0105954Y0008926D01*
X0100954Y0008926D01*
X0098454Y0011426D01*
X0098454Y0016426D02*
X0100954Y0018926D01*
X0105954Y0018926D01*
X0108454Y0016426D01*
X0110954Y0018926D01*
X0115954Y0018926D01*
X0118454Y0016426D01*
X0120954Y0018926D01*
X0118454Y0016426D02*
X0118454Y0011426D01*
X0128454Y0011426D02*
X0128454Y0016426D01*
X0108454Y0016426D02*
X0108454Y0011426D01*
D11*
X0143883Y0011421D02*
X0143883Y0009219D01*
X0143883Y0009953D02*
X0144984Y0009953D01*
X0145351Y0010320D01*
X0145351Y0011054D01*
X0144984Y0011421D01*
X0143883Y0011421D01*
X0144617Y0009953D02*
X0145351Y0009219D01*
X0146093Y0009219D02*
X0147561Y0009219D01*
X0146827Y0009219D02*
X0146827Y0011421D01*
X0146093Y0010687D01*
X0155448Y0006607D02*
X0156916Y0006607D01*
X0157658Y0006607D02*
X0157658Y0004406D01*
X0159126Y0004406D01*
X0159868Y0004406D02*
X0159868Y0005873D01*
X0160602Y0006607D01*
X0161336Y0005873D01*
X0161336Y0004406D01*
X0162078Y0004772D02*
X0162445Y0004406D01*
X0163179Y0004406D01*
X0163546Y0004772D01*
X0163546Y0005139D01*
X0163179Y0005506D01*
X0162445Y0005506D01*
X0162078Y0005873D01*
X0162078Y0006240D01*
X0162445Y0006607D01*
X0163179Y0006607D01*
X0163546Y0006240D01*
X0164288Y0006607D02*
X0164288Y0004406D01*
X0164288Y0005506D02*
X0165755Y0005506D01*
X0165755Y0004406D02*
X0165755Y0006607D01*
X0168805Y0009849D02*
X0168805Y0012051D01*
X0169906Y0012051D01*
X0170273Y0011684D01*
X0170273Y0010950D01*
X0169906Y0010583D01*
X0168805Y0010583D01*
X0169539Y0010583D02*
X0170273Y0009849D01*
X0171015Y0009849D02*
X0172482Y0011317D01*
X0172482Y0011684D01*
X0172115Y0012051D01*
X0171381Y0012051D01*
X0171015Y0011684D01*
X0171015Y0009849D02*
X0172482Y0009849D01*
X0180702Y0006937D02*
X0181803Y0006937D01*
X0182170Y0006570D01*
X0182170Y0005836D01*
X0181803Y0005469D01*
X0180702Y0005469D01*
X0180702Y0004735D02*
X0180702Y0006937D01*
X0181436Y0005469D02*
X0182170Y0004735D01*
X0182912Y0004735D02*
X0184380Y0004735D01*
X0185122Y0005102D02*
X0185489Y0004735D01*
X0186223Y0004735D01*
X0186590Y0005102D01*
X0186590Y0005469D01*
X0186223Y0005836D01*
X0185489Y0005836D01*
X0185122Y0006203D01*
X0185122Y0006570D01*
X0185489Y0006937D01*
X0186223Y0006937D01*
X0186590Y0006570D01*
X0187332Y0006937D02*
X0187332Y0004735D01*
X0188800Y0004735D01*
X0188066Y0005836D02*
X0187332Y0005836D01*
X0187332Y0006937D02*
X0188800Y0006937D01*
X0189542Y0006937D02*
X0191010Y0006937D01*
X0190276Y0006937D02*
X0190276Y0004735D01*
X0184380Y0006937D02*
X0182912Y0006937D01*
X0182912Y0004735D01*
X0182912Y0005836D02*
X0183646Y0005836D01*
X0161336Y0005506D02*
X0159868Y0005506D01*
X0156182Y0005506D02*
X0155448Y0005506D01*
X0155448Y0004406D02*
X0155448Y0006607D01*
X0083157Y0037786D02*
X0080955Y0037786D01*
X0080955Y0038887D01*
X0081322Y0039254D01*
X0082056Y0039254D01*
X0082423Y0038887D01*
X0082423Y0037786D01*
X0082423Y0038520D02*
X0083157Y0039254D01*
X0083157Y0039996D02*
X0083157Y0041464D01*
X0083157Y0040730D02*
X0080955Y0040730D01*
X0081689Y0039996D01*
X0081322Y0042206D02*
X0080955Y0042573D01*
X0080955Y0043307D01*
X0081322Y0043673D01*
X0082790Y0042206D01*
X0083157Y0042573D01*
X0083157Y0043307D01*
X0082790Y0043673D01*
X0081322Y0043673D01*
X0081322Y0042206D02*
X0082790Y0042206D01*
X0083078Y0054912D02*
X0080876Y0054912D01*
X0080876Y0056013D01*
X0081243Y0056380D01*
X0081977Y0056380D01*
X0082344Y0056013D01*
X0082344Y0054912D01*
X0082344Y0055646D02*
X0083078Y0056380D01*
X0081977Y0057122D02*
X0081977Y0058590D01*
X0080876Y0058223D02*
X0081977Y0057122D01*
X0083078Y0058223D02*
X0080876Y0058223D01*
X0072212Y0058498D02*
X0072212Y0057764D01*
X0071845Y0057397D01*
X0072212Y0056655D02*
X0071478Y0055921D01*
X0071478Y0056288D02*
X0071478Y0055187D01*
X0072212Y0055187D02*
X0070010Y0055187D01*
X0070010Y0056288D01*
X0070377Y0056655D01*
X0071111Y0056655D01*
X0071478Y0056288D01*
X0070377Y0057397D02*
X0070010Y0057764D01*
X0070010Y0058498D01*
X0070377Y0058865D01*
X0070744Y0058865D01*
X0071111Y0058498D01*
X0071478Y0058865D01*
X0071845Y0058865D01*
X0072212Y0058498D01*
X0071111Y0058498D02*
X0071111Y0058131D01*
X0060991Y0057856D02*
X0058789Y0057856D01*
X0059523Y0057122D01*
X0059156Y0056380D02*
X0058789Y0056013D01*
X0058789Y0055279D01*
X0059156Y0054912D01*
X0060624Y0054912D01*
X0060991Y0055279D01*
X0060991Y0056013D01*
X0060624Y0056380D01*
X0060991Y0057122D02*
X0060991Y0058590D01*
X0039850Y0052948D02*
X0039483Y0052948D01*
X0038015Y0054416D01*
X0037648Y0054416D01*
X0037648Y0052948D01*
X0038015Y0052206D02*
X0038749Y0052206D01*
X0039116Y0051840D01*
X0039116Y0050739D01*
X0039116Y0051473D02*
X0039850Y0052206D01*
X0039850Y0050739D02*
X0037648Y0050739D01*
X0037648Y0051840D01*
X0038015Y0052206D01*
X0023767Y0055141D02*
X0023767Y0055875D01*
X0023400Y0056242D01*
X0022666Y0056984D02*
X0022666Y0058452D01*
X0021565Y0058085D02*
X0022666Y0056984D01*
X0021932Y0056242D02*
X0021565Y0055875D01*
X0021565Y0055141D01*
X0021932Y0054774D01*
X0023400Y0054774D01*
X0023767Y0055141D01*
X0023767Y0058085D02*
X0021565Y0058085D01*
X0014098Y0064082D02*
X0012630Y0064082D01*
X0013364Y0064082D02*
X0013364Y0066284D01*
X0012630Y0065550D01*
X0010420Y0066284D02*
X0010420Y0064082D01*
X0011888Y0064082D01*
X0037648Y0071132D02*
X0037648Y0072233D01*
X0038015Y0072600D01*
X0038749Y0072600D01*
X0039116Y0072233D01*
X0039116Y0071132D01*
X0039850Y0071132D02*
X0037648Y0071132D01*
X0039116Y0071866D02*
X0039850Y0072600D01*
X0039483Y0073342D02*
X0039116Y0073342D01*
X0038749Y0073709D01*
X0038749Y0074443D01*
X0039116Y0074810D01*
X0039483Y0074810D01*
X0039850Y0074443D01*
X0039850Y0073709D01*
X0039483Y0073342D01*
X0038749Y0073709D02*
X0038382Y0073342D01*
X0038015Y0073342D01*
X0037648Y0073709D01*
X0037648Y0074443D01*
X0038015Y0074810D01*
X0038382Y0074810D01*
X0038749Y0074443D01*
X0058711Y0074399D02*
X0058711Y0073298D01*
X0060913Y0073298D01*
X0060179Y0073298D02*
X0060179Y0074399D01*
X0059812Y0074766D01*
X0059078Y0074766D01*
X0058711Y0074399D01*
X0058711Y0075508D02*
X0059812Y0075508D01*
X0059445Y0076241D01*
X0059445Y0076608D01*
X0059812Y0076975D01*
X0060546Y0076975D01*
X0060913Y0076608D01*
X0060913Y0075874D01*
X0060546Y0075508D01*
X0060913Y0074766D02*
X0060179Y0074032D01*
X0058711Y0075508D02*
X0058711Y0076975D01*
X0069971Y0076490D02*
X0069971Y0075756D01*
X0070338Y0075389D01*
X0070705Y0075389D01*
X0071072Y0075756D01*
X0071072Y0076857D01*
X0071805Y0076857D02*
X0070338Y0076857D01*
X0069971Y0076490D01*
X0069971Y0077599D02*
X0069971Y0078333D01*
X0069971Y0077599D02*
X0072172Y0077599D01*
X0072172Y0078333D01*
X0072172Y0079073D02*
X0069971Y0079073D01*
X0069971Y0080540D01*
X0069971Y0081282D02*
X0069971Y0082383D01*
X0070338Y0082750D01*
X0071072Y0082750D01*
X0071438Y0082383D01*
X0071438Y0081282D01*
X0071438Y0082016D02*
X0072172Y0082750D01*
X0072172Y0083492D02*
X0069971Y0083492D01*
X0069971Y0084593D01*
X0070338Y0084960D01*
X0071072Y0084960D01*
X0071438Y0084593D01*
X0071438Y0083492D01*
X0071438Y0084226D02*
X0072172Y0084960D01*
X0071805Y0085702D02*
X0070338Y0085702D01*
X0069971Y0086069D01*
X0069971Y0086803D01*
X0070338Y0087170D01*
X0071805Y0087170D01*
X0072172Y0086803D01*
X0072172Y0086069D01*
X0071805Y0085702D01*
X0071438Y0087912D02*
X0071438Y0089013D01*
X0071072Y0089380D01*
X0070338Y0089380D01*
X0069971Y0089013D01*
X0069971Y0087912D01*
X0072172Y0087912D01*
X0071438Y0088646D02*
X0072172Y0089380D01*
X0072172Y0090122D02*
X0072172Y0090856D01*
X0069971Y0090856D01*
X0069971Y0090122D01*
X0069971Y0081282D02*
X0072172Y0081282D01*
X0072172Y0080540D02*
X0072172Y0079073D01*
X0071072Y0079073D02*
X0071072Y0079806D01*
X0071805Y0076857D02*
X0072172Y0076490D01*
X0072172Y0075756D01*
X0071805Y0075389D01*
X0072172Y0074647D02*
X0071438Y0073913D01*
X0071438Y0074280D02*
X0071438Y0073180D01*
X0072172Y0073180D02*
X0069971Y0073180D01*
X0069971Y0074280D01*
X0070338Y0074647D01*
X0071072Y0074647D01*
X0071438Y0074280D01*
X0080364Y0074359D02*
X0080364Y0073258D01*
X0082566Y0073258D01*
X0081832Y0073258D02*
X0081832Y0074359D01*
X0081465Y0074726D01*
X0080731Y0074726D01*
X0080364Y0074359D01*
X0081832Y0073992D02*
X0082566Y0074726D01*
X0082199Y0075468D02*
X0082566Y0075835D01*
X0082566Y0076569D01*
X0082199Y0076936D01*
X0081832Y0076936D01*
X0081465Y0076569D01*
X0081465Y0075468D01*
X0082199Y0075468D01*
X0081465Y0075468D02*
X0080731Y0076202D01*
X0080364Y0076936D01*
X0036665Y0094069D02*
X0036665Y0095170D01*
X0036298Y0095537D01*
X0034830Y0095537D01*
X0034463Y0095170D01*
X0034463Y0094069D01*
X0036665Y0094069D01*
X0036665Y0096279D02*
X0036665Y0097747D01*
X0036665Y0097013D02*
X0034463Y0097013D01*
X0035197Y0096279D01*
X0021702Y0101604D02*
X0021702Y0102338D01*
X0021335Y0102705D01*
X0021335Y0103447D02*
X0021702Y0103814D01*
X0021702Y0104548D01*
X0021335Y0104915D01*
X0020968Y0104915D01*
X0020601Y0104548D01*
X0020601Y0104181D01*
X0020601Y0104548D02*
X0020234Y0104915D01*
X0019867Y0104915D01*
X0019500Y0104548D01*
X0019500Y0103814D01*
X0019867Y0103447D01*
X0019867Y0102705D02*
X0019500Y0102338D01*
X0019500Y0101604D01*
X0019867Y0101237D01*
X0021335Y0101237D01*
X0021702Y0101604D01*
X0007960Y0101383D02*
X0007960Y0102117D01*
X0007593Y0102484D01*
X0007960Y0103226D02*
X0006492Y0104694D01*
X0006125Y0104694D01*
X0005758Y0104327D01*
X0005758Y0103593D01*
X0006125Y0103226D01*
X0006125Y0102484D02*
X0005758Y0102117D01*
X0005758Y0101383D01*
X0006125Y0101016D01*
X0007593Y0101016D01*
X0007960Y0101383D01*
X0007960Y0103226D02*
X0007960Y0104694D01*
X0047673Y0037940D02*
X0048774Y0037940D01*
X0049141Y0037573D01*
X0049141Y0036106D01*
X0048774Y0035739D01*
X0047673Y0035739D01*
X0047673Y0037940D01*
X0049883Y0037573D02*
X0050250Y0037940D01*
X0050984Y0037940D01*
X0051351Y0037573D01*
X0051351Y0037206D01*
X0049883Y0035739D01*
X0051351Y0035739D01*
X0031824Y0018400D02*
X0031457Y0018767D01*
X0030723Y0018767D01*
X0030356Y0018400D01*
X0030356Y0018033D01*
X0030723Y0017299D01*
X0029622Y0017299D01*
X0029622Y0018767D01*
X0031824Y0018400D02*
X0031824Y0017666D01*
X0031457Y0017299D01*
X0031457Y0016557D02*
X0031824Y0016190D01*
X0031824Y0015456D01*
X0031457Y0015089D01*
X0029989Y0015089D01*
X0029622Y0015456D01*
X0029622Y0016190D01*
X0029989Y0016557D01*
D12*
X0037056Y0085144D02*
X0037056Y0102944D01*
X0052056Y0102944D02*
X0052056Y0085144D01*
X0150342Y0087512D02*
X0155546Y0087512D01*
X0155546Y0085777D02*
X0155546Y0089247D01*
X0155546Y0090934D02*
X0152077Y0094403D01*
X0151209Y0094403D01*
X0150342Y0093536D01*
X0150342Y0091801D01*
X0151209Y0090934D01*
X0155546Y0090934D02*
X0155546Y0094403D01*
X0150342Y0087512D02*
X0152077Y0085777D01*
X0152944Y0078934D02*
X0152944Y0075465D01*
X0152944Y0068621D02*
X0151209Y0068621D01*
X0150342Y0067754D01*
X0150342Y0065152D01*
X0155546Y0065152D01*
X0153812Y0065152D02*
X0153812Y0067754D01*
X0152944Y0068621D01*
X0153812Y0063465D02*
X0154679Y0063465D01*
X0155546Y0062598D01*
X0155546Y0060863D01*
X0154679Y0059995D01*
X0155546Y0058309D02*
X0155546Y0054839D01*
X0150342Y0054839D01*
X0150342Y0058309D01*
X0151209Y0059995D02*
X0152077Y0059995D01*
X0152944Y0060863D01*
X0152944Y0062598D01*
X0153812Y0063465D01*
X0151209Y0063465D02*
X0150342Y0062598D01*
X0150342Y0060863D01*
X0151209Y0059995D01*
X0152944Y0056574D02*
X0152944Y0054839D01*
D13*
X0050450Y0034644D02*
X0044775Y0034644D01*
X0045144Y0034300D02*
X0045144Y0028788D01*
X0044775Y0028444D02*
X0050450Y0028444D01*
X0048493Y0093284D02*
X0040619Y0093284D01*
X0044556Y0097312D01*
X0048493Y0093284D01*
D14*
X0008650Y0010855D02*
X0003139Y0010855D01*
X0003139Y0038414D01*
X0008650Y0038414D01*
X0008650Y0010855D01*
X0025186Y0010855D01*
X0025186Y0038414D01*
X0030698Y0038414D01*
X0030698Y0010855D01*
X0025186Y0010855D01*
X0011012Y0017824D02*
X0011014Y0017977D01*
X0011020Y0018131D01*
X0011030Y0018284D01*
X0011044Y0018436D01*
X0011062Y0018589D01*
X0011084Y0018740D01*
X0011109Y0018891D01*
X0011139Y0019042D01*
X0011173Y0019192D01*
X0011210Y0019340D01*
X0011251Y0019488D01*
X0011296Y0019634D01*
X0011345Y0019780D01*
X0011398Y0019924D01*
X0011454Y0020066D01*
X0011514Y0020207D01*
X0011578Y0020347D01*
X0011645Y0020485D01*
X0011716Y0020621D01*
X0011791Y0020755D01*
X0011868Y0020887D01*
X0011950Y0021017D01*
X0012034Y0021145D01*
X0012122Y0021271D01*
X0012213Y0021394D01*
X0012307Y0021515D01*
X0012405Y0021633D01*
X0012505Y0021749D01*
X0012609Y0021862D01*
X0012715Y0021973D01*
X0012824Y0022081D01*
X0012936Y0022186D01*
X0013050Y0022287D01*
X0013168Y0022386D01*
X0013287Y0022482D01*
X0013409Y0022575D01*
X0013534Y0022664D01*
X0013661Y0022751D01*
X0013790Y0022833D01*
X0013921Y0022913D01*
X0014054Y0022989D01*
X0014189Y0023062D01*
X0014326Y0023131D01*
X0014465Y0023196D01*
X0014605Y0023258D01*
X0014747Y0023316D01*
X0014890Y0023371D01*
X0015035Y0023422D01*
X0015181Y0023469D01*
X0015328Y0023512D01*
X0015476Y0023551D01*
X0015625Y0023587D01*
X0015775Y0023618D01*
X0015926Y0023646D01*
X0016077Y0023670D01*
X0016230Y0023690D01*
X0016382Y0023706D01*
X0016535Y0023718D01*
X0016688Y0023726D01*
X0016841Y0023730D01*
X0016995Y0023730D01*
X0017148Y0023726D01*
X0017301Y0023718D01*
X0017454Y0023706D01*
X0017606Y0023690D01*
X0017759Y0023670D01*
X0017910Y0023646D01*
X0018061Y0023618D01*
X0018211Y0023587D01*
X0018360Y0023551D01*
X0018508Y0023512D01*
X0018655Y0023469D01*
X0018801Y0023422D01*
X0018946Y0023371D01*
X0019089Y0023316D01*
X0019231Y0023258D01*
X0019371Y0023196D01*
X0019510Y0023131D01*
X0019647Y0023062D01*
X0019782Y0022989D01*
X0019915Y0022913D01*
X0020046Y0022833D01*
X0020175Y0022751D01*
X0020302Y0022664D01*
X0020427Y0022575D01*
X0020549Y0022482D01*
X0020668Y0022386D01*
X0020786Y0022287D01*
X0020900Y0022186D01*
X0021012Y0022081D01*
X0021121Y0021973D01*
X0021227Y0021862D01*
X0021331Y0021749D01*
X0021431Y0021633D01*
X0021529Y0021515D01*
X0021623Y0021394D01*
X0021714Y0021271D01*
X0021802Y0021145D01*
X0021886Y0021017D01*
X0021968Y0020887D01*
X0022045Y0020755D01*
X0022120Y0020621D01*
X0022191Y0020485D01*
X0022258Y0020347D01*
X0022322Y0020207D01*
X0022382Y0020066D01*
X0022438Y0019924D01*
X0022491Y0019780D01*
X0022540Y0019634D01*
X0022585Y0019488D01*
X0022626Y0019340D01*
X0022663Y0019192D01*
X0022697Y0019042D01*
X0022727Y0018891D01*
X0022752Y0018740D01*
X0022774Y0018589D01*
X0022792Y0018436D01*
X0022806Y0018284D01*
X0022816Y0018131D01*
X0022822Y0017977D01*
X0022824Y0017824D01*
X0022822Y0017671D01*
X0022816Y0017517D01*
X0022806Y0017364D01*
X0022792Y0017212D01*
X0022774Y0017059D01*
X0022752Y0016908D01*
X0022727Y0016757D01*
X0022697Y0016606D01*
X0022663Y0016456D01*
X0022626Y0016308D01*
X0022585Y0016160D01*
X0022540Y0016014D01*
X0022491Y0015868D01*
X0022438Y0015724D01*
X0022382Y0015582D01*
X0022322Y0015441D01*
X0022258Y0015301D01*
X0022191Y0015163D01*
X0022120Y0015027D01*
X0022045Y0014893D01*
X0021968Y0014761D01*
X0021886Y0014631D01*
X0021802Y0014503D01*
X0021714Y0014377D01*
X0021623Y0014254D01*
X0021529Y0014133D01*
X0021431Y0014015D01*
X0021331Y0013899D01*
X0021227Y0013786D01*
X0021121Y0013675D01*
X0021012Y0013567D01*
X0020900Y0013462D01*
X0020786Y0013361D01*
X0020668Y0013262D01*
X0020549Y0013166D01*
X0020427Y0013073D01*
X0020302Y0012984D01*
X0020175Y0012897D01*
X0020046Y0012815D01*
X0019915Y0012735D01*
X0019782Y0012659D01*
X0019647Y0012586D01*
X0019510Y0012517D01*
X0019371Y0012452D01*
X0019231Y0012390D01*
X0019089Y0012332D01*
X0018946Y0012277D01*
X0018801Y0012226D01*
X0018655Y0012179D01*
X0018508Y0012136D01*
X0018360Y0012097D01*
X0018211Y0012061D01*
X0018061Y0012030D01*
X0017910Y0012002D01*
X0017759Y0011978D01*
X0017606Y0011958D01*
X0017454Y0011942D01*
X0017301Y0011930D01*
X0017148Y0011922D01*
X0016995Y0011918D01*
X0016841Y0011918D01*
X0016688Y0011922D01*
X0016535Y0011930D01*
X0016382Y0011942D01*
X0016230Y0011958D01*
X0016077Y0011978D01*
X0015926Y0012002D01*
X0015775Y0012030D01*
X0015625Y0012061D01*
X0015476Y0012097D01*
X0015328Y0012136D01*
X0015181Y0012179D01*
X0015035Y0012226D01*
X0014890Y0012277D01*
X0014747Y0012332D01*
X0014605Y0012390D01*
X0014465Y0012452D01*
X0014326Y0012517D01*
X0014189Y0012586D01*
X0014054Y0012659D01*
X0013921Y0012735D01*
X0013790Y0012815D01*
X0013661Y0012897D01*
X0013534Y0012984D01*
X0013409Y0013073D01*
X0013287Y0013166D01*
X0013168Y0013262D01*
X0013050Y0013361D01*
X0012936Y0013462D01*
X0012824Y0013567D01*
X0012715Y0013675D01*
X0012609Y0013786D01*
X0012505Y0013899D01*
X0012405Y0014015D01*
X0012307Y0014133D01*
X0012213Y0014254D01*
X0012122Y0014377D01*
X0012034Y0014503D01*
X0011950Y0014631D01*
X0011868Y0014761D01*
X0011791Y0014893D01*
X0011716Y0015027D01*
X0011645Y0015163D01*
X0011578Y0015301D01*
X0011514Y0015441D01*
X0011454Y0015582D01*
X0011398Y0015724D01*
X0011345Y0015868D01*
X0011296Y0016014D01*
X0011251Y0016160D01*
X0011210Y0016308D01*
X0011173Y0016456D01*
X0011139Y0016606D01*
X0011109Y0016757D01*
X0011084Y0016908D01*
X0011062Y0017059D01*
X0011044Y0017212D01*
X0011030Y0017364D01*
X0011020Y0017517D01*
X0011014Y0017671D01*
X0011012Y0017824D01*
X0011012Y0031446D02*
X0011014Y0031599D01*
X0011020Y0031753D01*
X0011030Y0031906D01*
X0011044Y0032058D01*
X0011062Y0032211D01*
X0011084Y0032362D01*
X0011109Y0032513D01*
X0011139Y0032664D01*
X0011173Y0032814D01*
X0011210Y0032962D01*
X0011251Y0033110D01*
X0011296Y0033256D01*
X0011345Y0033402D01*
X0011398Y0033546D01*
X0011454Y0033688D01*
X0011514Y0033829D01*
X0011578Y0033969D01*
X0011645Y0034107D01*
X0011716Y0034243D01*
X0011791Y0034377D01*
X0011868Y0034509D01*
X0011950Y0034639D01*
X0012034Y0034767D01*
X0012122Y0034893D01*
X0012213Y0035016D01*
X0012307Y0035137D01*
X0012405Y0035255D01*
X0012505Y0035371D01*
X0012609Y0035484D01*
X0012715Y0035595D01*
X0012824Y0035703D01*
X0012936Y0035808D01*
X0013050Y0035909D01*
X0013168Y0036008D01*
X0013287Y0036104D01*
X0013409Y0036197D01*
X0013534Y0036286D01*
X0013661Y0036373D01*
X0013790Y0036455D01*
X0013921Y0036535D01*
X0014054Y0036611D01*
X0014189Y0036684D01*
X0014326Y0036753D01*
X0014465Y0036818D01*
X0014605Y0036880D01*
X0014747Y0036938D01*
X0014890Y0036993D01*
X0015035Y0037044D01*
X0015181Y0037091D01*
X0015328Y0037134D01*
X0015476Y0037173D01*
X0015625Y0037209D01*
X0015775Y0037240D01*
X0015926Y0037268D01*
X0016077Y0037292D01*
X0016230Y0037312D01*
X0016382Y0037328D01*
X0016535Y0037340D01*
X0016688Y0037348D01*
X0016841Y0037352D01*
X0016995Y0037352D01*
X0017148Y0037348D01*
X0017301Y0037340D01*
X0017454Y0037328D01*
X0017606Y0037312D01*
X0017759Y0037292D01*
X0017910Y0037268D01*
X0018061Y0037240D01*
X0018211Y0037209D01*
X0018360Y0037173D01*
X0018508Y0037134D01*
X0018655Y0037091D01*
X0018801Y0037044D01*
X0018946Y0036993D01*
X0019089Y0036938D01*
X0019231Y0036880D01*
X0019371Y0036818D01*
X0019510Y0036753D01*
X0019647Y0036684D01*
X0019782Y0036611D01*
X0019915Y0036535D01*
X0020046Y0036455D01*
X0020175Y0036373D01*
X0020302Y0036286D01*
X0020427Y0036197D01*
X0020549Y0036104D01*
X0020668Y0036008D01*
X0020786Y0035909D01*
X0020900Y0035808D01*
X0021012Y0035703D01*
X0021121Y0035595D01*
X0021227Y0035484D01*
X0021331Y0035371D01*
X0021431Y0035255D01*
X0021529Y0035137D01*
X0021623Y0035016D01*
X0021714Y0034893D01*
X0021802Y0034767D01*
X0021886Y0034639D01*
X0021968Y0034509D01*
X0022045Y0034377D01*
X0022120Y0034243D01*
X0022191Y0034107D01*
X0022258Y0033969D01*
X0022322Y0033829D01*
X0022382Y0033688D01*
X0022438Y0033546D01*
X0022491Y0033402D01*
X0022540Y0033256D01*
X0022585Y0033110D01*
X0022626Y0032962D01*
X0022663Y0032814D01*
X0022697Y0032664D01*
X0022727Y0032513D01*
X0022752Y0032362D01*
X0022774Y0032211D01*
X0022792Y0032058D01*
X0022806Y0031906D01*
X0022816Y0031753D01*
X0022822Y0031599D01*
X0022824Y0031446D01*
X0022822Y0031293D01*
X0022816Y0031139D01*
X0022806Y0030986D01*
X0022792Y0030834D01*
X0022774Y0030681D01*
X0022752Y0030530D01*
X0022727Y0030379D01*
X0022697Y0030228D01*
X0022663Y0030078D01*
X0022626Y0029930D01*
X0022585Y0029782D01*
X0022540Y0029636D01*
X0022491Y0029490D01*
X0022438Y0029346D01*
X0022382Y0029204D01*
X0022322Y0029063D01*
X0022258Y0028923D01*
X0022191Y0028785D01*
X0022120Y0028649D01*
X0022045Y0028515D01*
X0021968Y0028383D01*
X0021886Y0028253D01*
X0021802Y0028125D01*
X0021714Y0027999D01*
X0021623Y0027876D01*
X0021529Y0027755D01*
X0021431Y0027637D01*
X0021331Y0027521D01*
X0021227Y0027408D01*
X0021121Y0027297D01*
X0021012Y0027189D01*
X0020900Y0027084D01*
X0020786Y0026983D01*
X0020668Y0026884D01*
X0020549Y0026788D01*
X0020427Y0026695D01*
X0020302Y0026606D01*
X0020175Y0026519D01*
X0020046Y0026437D01*
X0019915Y0026357D01*
X0019782Y0026281D01*
X0019647Y0026208D01*
X0019510Y0026139D01*
X0019371Y0026074D01*
X0019231Y0026012D01*
X0019089Y0025954D01*
X0018946Y0025899D01*
X0018801Y0025848D01*
X0018655Y0025801D01*
X0018508Y0025758D01*
X0018360Y0025719D01*
X0018211Y0025683D01*
X0018061Y0025652D01*
X0017910Y0025624D01*
X0017759Y0025600D01*
X0017606Y0025580D01*
X0017454Y0025564D01*
X0017301Y0025552D01*
X0017148Y0025544D01*
X0016995Y0025540D01*
X0016841Y0025540D01*
X0016688Y0025544D01*
X0016535Y0025552D01*
X0016382Y0025564D01*
X0016230Y0025580D01*
X0016077Y0025600D01*
X0015926Y0025624D01*
X0015775Y0025652D01*
X0015625Y0025683D01*
X0015476Y0025719D01*
X0015328Y0025758D01*
X0015181Y0025801D01*
X0015035Y0025848D01*
X0014890Y0025899D01*
X0014747Y0025954D01*
X0014605Y0026012D01*
X0014465Y0026074D01*
X0014326Y0026139D01*
X0014189Y0026208D01*
X0014054Y0026281D01*
X0013921Y0026357D01*
X0013790Y0026437D01*
X0013661Y0026519D01*
X0013534Y0026606D01*
X0013409Y0026695D01*
X0013287Y0026788D01*
X0013168Y0026884D01*
X0013050Y0026983D01*
X0012936Y0027084D01*
X0012824Y0027189D01*
X0012715Y0027297D01*
X0012609Y0027408D01*
X0012505Y0027521D01*
X0012405Y0027637D01*
X0012307Y0027755D01*
X0012213Y0027876D01*
X0012122Y0027999D01*
X0012034Y0028125D01*
X0011950Y0028253D01*
X0011868Y0028383D01*
X0011791Y0028515D01*
X0011716Y0028649D01*
X0011645Y0028785D01*
X0011578Y0028923D01*
X0011514Y0029063D01*
X0011454Y0029204D01*
X0011398Y0029346D01*
X0011345Y0029490D01*
X0011296Y0029636D01*
X0011251Y0029782D01*
X0011210Y0029930D01*
X0011173Y0030078D01*
X0011139Y0030228D01*
X0011109Y0030379D01*
X0011084Y0030530D01*
X0011062Y0030681D01*
X0011044Y0030834D01*
X0011030Y0030986D01*
X0011020Y0031139D01*
X0011014Y0031293D01*
X0011012Y0031446D01*
X0008650Y0038414D02*
X0025186Y0038414D01*
X0061288Y0046957D02*
X0069162Y0046957D01*
X0069162Y0051682D01*
X0066800Y0054044D02*
X0063650Y0054044D01*
X0063650Y0055619D02*
X0066800Y0055619D01*
X0069162Y0057981D02*
X0069162Y0062706D01*
X0061288Y0062706D01*
X0061288Y0057981D01*
X0061288Y0051682D02*
X0061288Y0046957D01*
X0083375Y0046957D02*
X0091249Y0046957D01*
X0091249Y0051288D01*
X0089280Y0054438D02*
X0088493Y0055225D01*
X0087706Y0054438D01*
X0086918Y0055225D01*
X0086131Y0054438D01*
X0085343Y0055225D01*
X0083375Y0057587D02*
X0083375Y0062706D01*
X0091249Y0062706D01*
X0091249Y0057587D01*
X0083375Y0051288D02*
X0083375Y0046957D01*
X0099753Y0044162D02*
X0099753Y0107154D01*
X0088532Y0110540D02*
X0060973Y0110540D01*
X0060973Y0116052D01*
X0088532Y0116052D01*
X0088532Y0110540D01*
X0088532Y0094005D01*
X0060973Y0094005D01*
X0060973Y0110540D01*
X0062036Y0102272D02*
X0062038Y0102425D01*
X0062044Y0102579D01*
X0062054Y0102732D01*
X0062068Y0102884D01*
X0062086Y0103037D01*
X0062108Y0103188D01*
X0062133Y0103339D01*
X0062163Y0103490D01*
X0062197Y0103640D01*
X0062234Y0103788D01*
X0062275Y0103936D01*
X0062320Y0104082D01*
X0062369Y0104228D01*
X0062422Y0104372D01*
X0062478Y0104514D01*
X0062538Y0104655D01*
X0062602Y0104795D01*
X0062669Y0104933D01*
X0062740Y0105069D01*
X0062815Y0105203D01*
X0062892Y0105335D01*
X0062974Y0105465D01*
X0063058Y0105593D01*
X0063146Y0105719D01*
X0063237Y0105842D01*
X0063331Y0105963D01*
X0063429Y0106081D01*
X0063529Y0106197D01*
X0063633Y0106310D01*
X0063739Y0106421D01*
X0063848Y0106529D01*
X0063960Y0106634D01*
X0064074Y0106735D01*
X0064192Y0106834D01*
X0064311Y0106930D01*
X0064433Y0107023D01*
X0064558Y0107112D01*
X0064685Y0107199D01*
X0064814Y0107281D01*
X0064945Y0107361D01*
X0065078Y0107437D01*
X0065213Y0107510D01*
X0065350Y0107579D01*
X0065489Y0107644D01*
X0065629Y0107706D01*
X0065771Y0107764D01*
X0065914Y0107819D01*
X0066059Y0107870D01*
X0066205Y0107917D01*
X0066352Y0107960D01*
X0066500Y0107999D01*
X0066649Y0108035D01*
X0066799Y0108066D01*
X0066950Y0108094D01*
X0067101Y0108118D01*
X0067254Y0108138D01*
X0067406Y0108154D01*
X0067559Y0108166D01*
X0067712Y0108174D01*
X0067865Y0108178D01*
X0068019Y0108178D01*
X0068172Y0108174D01*
X0068325Y0108166D01*
X0068478Y0108154D01*
X0068630Y0108138D01*
X0068783Y0108118D01*
X0068934Y0108094D01*
X0069085Y0108066D01*
X0069235Y0108035D01*
X0069384Y0107999D01*
X0069532Y0107960D01*
X0069679Y0107917D01*
X0069825Y0107870D01*
X0069970Y0107819D01*
X0070113Y0107764D01*
X0070255Y0107706D01*
X0070395Y0107644D01*
X0070534Y0107579D01*
X0070671Y0107510D01*
X0070806Y0107437D01*
X0070939Y0107361D01*
X0071070Y0107281D01*
X0071199Y0107199D01*
X0071326Y0107112D01*
X0071451Y0107023D01*
X0071573Y0106930D01*
X0071692Y0106834D01*
X0071810Y0106735D01*
X0071924Y0106634D01*
X0072036Y0106529D01*
X0072145Y0106421D01*
X0072251Y0106310D01*
X0072355Y0106197D01*
X0072455Y0106081D01*
X0072553Y0105963D01*
X0072647Y0105842D01*
X0072738Y0105719D01*
X0072826Y0105593D01*
X0072910Y0105465D01*
X0072992Y0105335D01*
X0073069Y0105203D01*
X0073144Y0105069D01*
X0073215Y0104933D01*
X0073282Y0104795D01*
X0073346Y0104655D01*
X0073406Y0104514D01*
X0073462Y0104372D01*
X0073515Y0104228D01*
X0073564Y0104082D01*
X0073609Y0103936D01*
X0073650Y0103788D01*
X0073687Y0103640D01*
X0073721Y0103490D01*
X0073751Y0103339D01*
X0073776Y0103188D01*
X0073798Y0103037D01*
X0073816Y0102884D01*
X0073830Y0102732D01*
X0073840Y0102579D01*
X0073846Y0102425D01*
X0073848Y0102272D01*
X0073846Y0102119D01*
X0073840Y0101965D01*
X0073830Y0101812D01*
X0073816Y0101660D01*
X0073798Y0101507D01*
X0073776Y0101356D01*
X0073751Y0101205D01*
X0073721Y0101054D01*
X0073687Y0100904D01*
X0073650Y0100756D01*
X0073609Y0100608D01*
X0073564Y0100462D01*
X0073515Y0100316D01*
X0073462Y0100172D01*
X0073406Y0100030D01*
X0073346Y0099889D01*
X0073282Y0099749D01*
X0073215Y0099611D01*
X0073144Y0099475D01*
X0073069Y0099341D01*
X0072992Y0099209D01*
X0072910Y0099079D01*
X0072826Y0098951D01*
X0072738Y0098825D01*
X0072647Y0098702D01*
X0072553Y0098581D01*
X0072455Y0098463D01*
X0072355Y0098347D01*
X0072251Y0098234D01*
X0072145Y0098123D01*
X0072036Y0098015D01*
X0071924Y0097910D01*
X0071810Y0097809D01*
X0071692Y0097710D01*
X0071573Y0097614D01*
X0071451Y0097521D01*
X0071326Y0097432D01*
X0071199Y0097345D01*
X0071070Y0097263D01*
X0070939Y0097183D01*
X0070806Y0097107D01*
X0070671Y0097034D01*
X0070534Y0096965D01*
X0070395Y0096900D01*
X0070255Y0096838D01*
X0070113Y0096780D01*
X0069970Y0096725D01*
X0069825Y0096674D01*
X0069679Y0096627D01*
X0069532Y0096584D01*
X0069384Y0096545D01*
X0069235Y0096509D01*
X0069085Y0096478D01*
X0068934Y0096450D01*
X0068783Y0096426D01*
X0068630Y0096406D01*
X0068478Y0096390D01*
X0068325Y0096378D01*
X0068172Y0096370D01*
X0068019Y0096366D01*
X0067865Y0096366D01*
X0067712Y0096370D01*
X0067559Y0096378D01*
X0067406Y0096390D01*
X0067254Y0096406D01*
X0067101Y0096426D01*
X0066950Y0096450D01*
X0066799Y0096478D01*
X0066649Y0096509D01*
X0066500Y0096545D01*
X0066352Y0096584D01*
X0066205Y0096627D01*
X0066059Y0096674D01*
X0065914Y0096725D01*
X0065771Y0096780D01*
X0065629Y0096838D01*
X0065489Y0096900D01*
X0065350Y0096965D01*
X0065213Y0097034D01*
X0065078Y0097107D01*
X0064945Y0097183D01*
X0064814Y0097263D01*
X0064685Y0097345D01*
X0064558Y0097432D01*
X0064433Y0097521D01*
X0064311Y0097614D01*
X0064192Y0097710D01*
X0064074Y0097809D01*
X0063960Y0097910D01*
X0063848Y0098015D01*
X0063739Y0098123D01*
X0063633Y0098234D01*
X0063529Y0098347D01*
X0063429Y0098463D01*
X0063331Y0098581D01*
X0063237Y0098702D01*
X0063146Y0098825D01*
X0063058Y0098951D01*
X0062974Y0099079D01*
X0062892Y0099209D01*
X0062815Y0099341D01*
X0062740Y0099475D01*
X0062669Y0099611D01*
X0062602Y0099749D01*
X0062538Y0099889D01*
X0062478Y0100030D01*
X0062422Y0100172D01*
X0062369Y0100316D01*
X0062320Y0100462D01*
X0062275Y0100608D01*
X0062234Y0100756D01*
X0062197Y0100904D01*
X0062163Y0101054D01*
X0062133Y0101205D01*
X0062108Y0101356D01*
X0062086Y0101507D01*
X0062068Y0101660D01*
X0062054Y0101812D01*
X0062044Y0101965D01*
X0062038Y0102119D01*
X0062036Y0102272D01*
X0060973Y0094005D02*
X0060973Y0088493D01*
X0088532Y0088493D01*
X0088532Y0094005D01*
X0075658Y0102272D02*
X0075660Y0102425D01*
X0075666Y0102579D01*
X0075676Y0102732D01*
X0075690Y0102884D01*
X0075708Y0103037D01*
X0075730Y0103188D01*
X0075755Y0103339D01*
X0075785Y0103490D01*
X0075819Y0103640D01*
X0075856Y0103788D01*
X0075897Y0103936D01*
X0075942Y0104082D01*
X0075991Y0104228D01*
X0076044Y0104372D01*
X0076100Y0104514D01*
X0076160Y0104655D01*
X0076224Y0104795D01*
X0076291Y0104933D01*
X0076362Y0105069D01*
X0076437Y0105203D01*
X0076514Y0105335D01*
X0076596Y0105465D01*
X0076680Y0105593D01*
X0076768Y0105719D01*
X0076859Y0105842D01*
X0076953Y0105963D01*
X0077051Y0106081D01*
X0077151Y0106197D01*
X0077255Y0106310D01*
X0077361Y0106421D01*
X0077470Y0106529D01*
X0077582Y0106634D01*
X0077696Y0106735D01*
X0077814Y0106834D01*
X0077933Y0106930D01*
X0078055Y0107023D01*
X0078180Y0107112D01*
X0078307Y0107199D01*
X0078436Y0107281D01*
X0078567Y0107361D01*
X0078700Y0107437D01*
X0078835Y0107510D01*
X0078972Y0107579D01*
X0079111Y0107644D01*
X0079251Y0107706D01*
X0079393Y0107764D01*
X0079536Y0107819D01*
X0079681Y0107870D01*
X0079827Y0107917D01*
X0079974Y0107960D01*
X0080122Y0107999D01*
X0080271Y0108035D01*
X0080421Y0108066D01*
X0080572Y0108094D01*
X0080723Y0108118D01*
X0080876Y0108138D01*
X0081028Y0108154D01*
X0081181Y0108166D01*
X0081334Y0108174D01*
X0081487Y0108178D01*
X0081641Y0108178D01*
X0081794Y0108174D01*
X0081947Y0108166D01*
X0082100Y0108154D01*
X0082252Y0108138D01*
X0082405Y0108118D01*
X0082556Y0108094D01*
X0082707Y0108066D01*
X0082857Y0108035D01*
X0083006Y0107999D01*
X0083154Y0107960D01*
X0083301Y0107917D01*
X0083447Y0107870D01*
X0083592Y0107819D01*
X0083735Y0107764D01*
X0083877Y0107706D01*
X0084017Y0107644D01*
X0084156Y0107579D01*
X0084293Y0107510D01*
X0084428Y0107437D01*
X0084561Y0107361D01*
X0084692Y0107281D01*
X0084821Y0107199D01*
X0084948Y0107112D01*
X0085073Y0107023D01*
X0085195Y0106930D01*
X0085314Y0106834D01*
X0085432Y0106735D01*
X0085546Y0106634D01*
X0085658Y0106529D01*
X0085767Y0106421D01*
X0085873Y0106310D01*
X0085977Y0106197D01*
X0086077Y0106081D01*
X0086175Y0105963D01*
X0086269Y0105842D01*
X0086360Y0105719D01*
X0086448Y0105593D01*
X0086532Y0105465D01*
X0086614Y0105335D01*
X0086691Y0105203D01*
X0086766Y0105069D01*
X0086837Y0104933D01*
X0086904Y0104795D01*
X0086968Y0104655D01*
X0087028Y0104514D01*
X0087084Y0104372D01*
X0087137Y0104228D01*
X0087186Y0104082D01*
X0087231Y0103936D01*
X0087272Y0103788D01*
X0087309Y0103640D01*
X0087343Y0103490D01*
X0087373Y0103339D01*
X0087398Y0103188D01*
X0087420Y0103037D01*
X0087438Y0102884D01*
X0087452Y0102732D01*
X0087462Y0102579D01*
X0087468Y0102425D01*
X0087470Y0102272D01*
X0087468Y0102119D01*
X0087462Y0101965D01*
X0087452Y0101812D01*
X0087438Y0101660D01*
X0087420Y0101507D01*
X0087398Y0101356D01*
X0087373Y0101205D01*
X0087343Y0101054D01*
X0087309Y0100904D01*
X0087272Y0100756D01*
X0087231Y0100608D01*
X0087186Y0100462D01*
X0087137Y0100316D01*
X0087084Y0100172D01*
X0087028Y0100030D01*
X0086968Y0099889D01*
X0086904Y0099749D01*
X0086837Y0099611D01*
X0086766Y0099475D01*
X0086691Y0099341D01*
X0086614Y0099209D01*
X0086532Y0099079D01*
X0086448Y0098951D01*
X0086360Y0098825D01*
X0086269Y0098702D01*
X0086175Y0098581D01*
X0086077Y0098463D01*
X0085977Y0098347D01*
X0085873Y0098234D01*
X0085767Y0098123D01*
X0085658Y0098015D01*
X0085546Y0097910D01*
X0085432Y0097809D01*
X0085314Y0097710D01*
X0085195Y0097614D01*
X0085073Y0097521D01*
X0084948Y0097432D01*
X0084821Y0097345D01*
X0084692Y0097263D01*
X0084561Y0097183D01*
X0084428Y0097107D01*
X0084293Y0097034D01*
X0084156Y0096965D01*
X0084017Y0096900D01*
X0083877Y0096838D01*
X0083735Y0096780D01*
X0083592Y0096725D01*
X0083447Y0096674D01*
X0083301Y0096627D01*
X0083154Y0096584D01*
X0083006Y0096545D01*
X0082857Y0096509D01*
X0082707Y0096478D01*
X0082556Y0096450D01*
X0082405Y0096426D01*
X0082252Y0096406D01*
X0082100Y0096390D01*
X0081947Y0096378D01*
X0081794Y0096370D01*
X0081641Y0096366D01*
X0081487Y0096366D01*
X0081334Y0096370D01*
X0081181Y0096378D01*
X0081028Y0096390D01*
X0080876Y0096406D01*
X0080723Y0096426D01*
X0080572Y0096450D01*
X0080421Y0096478D01*
X0080271Y0096509D01*
X0080122Y0096545D01*
X0079974Y0096584D01*
X0079827Y0096627D01*
X0079681Y0096674D01*
X0079536Y0096725D01*
X0079393Y0096780D01*
X0079251Y0096838D01*
X0079111Y0096900D01*
X0078972Y0096965D01*
X0078835Y0097034D01*
X0078700Y0097107D01*
X0078567Y0097183D01*
X0078436Y0097263D01*
X0078307Y0097345D01*
X0078180Y0097432D01*
X0078055Y0097521D01*
X0077933Y0097614D01*
X0077814Y0097710D01*
X0077696Y0097809D01*
X0077582Y0097910D01*
X0077470Y0098015D01*
X0077361Y0098123D01*
X0077255Y0098234D01*
X0077151Y0098347D01*
X0077051Y0098463D01*
X0076953Y0098581D01*
X0076859Y0098702D01*
X0076768Y0098825D01*
X0076680Y0098951D01*
X0076596Y0099079D01*
X0076514Y0099209D01*
X0076437Y0099341D01*
X0076362Y0099475D01*
X0076291Y0099611D01*
X0076224Y0099749D01*
X0076160Y0099889D01*
X0076100Y0100030D01*
X0076044Y0100172D01*
X0075991Y0100316D01*
X0075942Y0100462D01*
X0075897Y0100608D01*
X0075856Y0100756D01*
X0075819Y0100904D01*
X0075785Y0101054D01*
X0075755Y0101205D01*
X0075730Y0101356D01*
X0075708Y0101507D01*
X0075690Y0101660D01*
X0075676Y0101812D01*
X0075666Y0101965D01*
X0075660Y0102119D01*
X0075658Y0102272D01*
X0069162Y0081091D02*
X0061288Y0081091D01*
X0061288Y0076761D01*
X0063257Y0073611D02*
X0064044Y0072824D01*
X0064831Y0073611D01*
X0065619Y0072824D01*
X0066406Y0073611D01*
X0067194Y0072824D01*
X0069162Y0070461D02*
X0069162Y0065343D01*
X0061288Y0065343D01*
X0061288Y0070461D01*
X0069162Y0076761D02*
X0069162Y0081091D01*
X0083296Y0081013D02*
X0083296Y0076682D01*
X0085265Y0073532D02*
X0086052Y0072745D01*
X0086839Y0073532D01*
X0087627Y0072745D01*
X0088414Y0073532D01*
X0089202Y0072745D01*
X0091170Y0070383D02*
X0091170Y0065265D01*
X0083296Y0065265D01*
X0083296Y0070383D01*
X0091170Y0076682D02*
X0091170Y0081013D01*
X0083296Y0081013D01*
X0028335Y0079044D02*
X0028335Y0072509D01*
X0017509Y0072509D02*
X0016603Y0073415D01*
X0016603Y0079044D01*
X0144241Y0027863D02*
X0144241Y0023532D01*
X0146209Y0020383D02*
X0146997Y0019595D01*
X0147784Y0020383D01*
X0148572Y0019595D01*
X0149359Y0020383D01*
X0150146Y0019595D01*
X0152115Y0017233D02*
X0152115Y0012115D01*
X0144241Y0012115D01*
X0144241Y0017233D01*
X0152115Y0023532D02*
X0152115Y0027863D01*
X0144241Y0027863D01*
X0155383Y0028454D02*
X0167194Y0028454D01*
X0167194Y0012706D01*
X0155383Y0012706D01*
X0155383Y0028454D01*
X0169241Y0028611D02*
X0169241Y0023493D01*
X0171209Y0021131D02*
X0171997Y0020343D01*
X0172784Y0021131D01*
X0173572Y0020343D01*
X0174359Y0021131D01*
X0175146Y0020343D01*
X0177115Y0023493D02*
X0177115Y0028611D01*
X0169241Y0028611D01*
X0180619Y0028769D02*
X0192430Y0028769D01*
X0192430Y0013020D01*
X0180619Y0013020D01*
X0180619Y0028769D01*
X0177115Y0017194D02*
X0177115Y0012863D01*
X0169241Y0012863D01*
X0169241Y0017194D01*
X0165501Y0044162D02*
X0194241Y0044162D01*
X0194241Y0107154D01*
X0165501Y0107154D01*
D15*
X0169438Y0094556D02*
X0169438Y0068965D01*
X0177312Y0068965D02*
X0177312Y0073296D01*
X0191091Y0073296D01*
X0191091Y0077627D01*
X0176918Y0077627D01*
X0176918Y0082351D01*
X0191091Y0082351D01*
X0191091Y0087076D01*
X0176918Y0087076D01*
X0176918Y0091013D01*
X0191485Y0091013D01*
X0191485Y0094556D01*
X0172194Y0094556D01*
X0171800Y0094556D02*
X0169438Y0094556D01*
X0177312Y0068965D02*
X0191091Y0068965D01*
X0191091Y0053217D01*
D16*
X0014969Y0073276D03*
D17*
X0058195Y0102297D02*
X0058195Y0103348D01*
X0058545Y0103698D01*
X0058895Y0103698D01*
X0059246Y0103348D01*
X0059246Y0102297D01*
X0060296Y0102297D02*
X0060296Y0103348D01*
X0059946Y0103698D01*
X0059596Y0103698D01*
X0059246Y0103348D01*
X0060296Y0102297D02*
X0058195Y0102297D01*
X0058195Y0104507D02*
X0058195Y0105908D01*
X0058195Y0105208D02*
X0060296Y0105208D01*
X0060296Y0106717D02*
X0058195Y0106717D01*
X0060296Y0108118D01*
X0058195Y0108118D01*
X0022947Y0040845D02*
X0023297Y0040494D01*
X0023297Y0039794D01*
X0022947Y0039444D01*
X0021896Y0039444D01*
X0022597Y0039444D02*
X0023297Y0038743D01*
X0021896Y0038743D02*
X0021896Y0040845D01*
X0022947Y0040845D01*
X0021087Y0040845D02*
X0019686Y0040845D01*
X0019686Y0038743D01*
X0021087Y0038743D01*
X0020387Y0039794D02*
X0019686Y0039794D01*
X0018877Y0038743D02*
X0018877Y0040845D01*
X0017476Y0040845D02*
X0017476Y0038743D01*
X0018177Y0039444D01*
X0018877Y0038743D01*
X0016668Y0039093D02*
X0016668Y0040494D01*
X0016317Y0040845D01*
X0015617Y0040845D01*
X0015266Y0040494D01*
X0015266Y0039093D01*
X0015617Y0038743D01*
X0016317Y0038743D01*
X0016668Y0039093D01*
X0014458Y0039794D02*
X0014107Y0039444D01*
X0013056Y0039444D01*
X0013056Y0038743D02*
X0013056Y0040845D01*
X0014107Y0040845D01*
X0014458Y0040494D01*
X0014458Y0039794D01*
D18*
X0044824Y0035752D03*
M02*
