G75*
%MOIN*%
%OFA0B0*%
%FSLAX25Y25*%
%IPPOS*%
%LPD*%
%AMOC8*
5,1,8,0,0,1.08239X$1,22.5*
%
%ADD10C,0.01600*%
D10*
X0011235Y0002017D02*
X0184227Y0002174D01*
X0184492Y0002177D01*
X0184758Y0002187D01*
X0185023Y0002203D01*
X0185287Y0002225D01*
X0185551Y0002254D01*
X0185814Y0002289D01*
X0186076Y0002331D01*
X0186337Y0002379D01*
X0186597Y0002433D01*
X0186856Y0002493D01*
X0187113Y0002560D01*
X0187368Y0002633D01*
X0187621Y0002712D01*
X0187873Y0002797D01*
X0188122Y0002888D01*
X0188369Y0002985D01*
X0188614Y0003088D01*
X0188856Y0003197D01*
X0189095Y0003312D01*
X0189332Y0003432D01*
X0189565Y0003558D01*
X0189795Y0003690D01*
X0190023Y0003827D01*
X0190246Y0003970D01*
X0190467Y0004118D01*
X0190683Y0004272D01*
X0190896Y0004430D01*
X0191105Y0004594D01*
X0191310Y0004763D01*
X0191511Y0004936D01*
X0191707Y0005115D01*
X0191899Y0005298D01*
X0192087Y0005486D01*
X0192270Y0005678D01*
X0192449Y0005874D01*
X0192622Y0006075D01*
X0192791Y0006280D01*
X0192955Y0006489D01*
X0193113Y0006702D01*
X0193267Y0006918D01*
X0193415Y0007139D01*
X0193558Y0007362D01*
X0193695Y0007590D01*
X0193827Y0007820D01*
X0193953Y0008053D01*
X0194073Y0008290D01*
X0194188Y0008529D01*
X0194297Y0008771D01*
X0194400Y0009016D01*
X0194497Y0009263D01*
X0194588Y0009512D01*
X0194673Y0009764D01*
X0194752Y0010017D01*
X0194825Y0010272D01*
X0194892Y0010529D01*
X0194952Y0010788D01*
X0195006Y0011048D01*
X0195054Y0011309D01*
X0195096Y0011571D01*
X0195131Y0011834D01*
X0195160Y0012098D01*
X0195182Y0012362D01*
X0195198Y0012627D01*
X0195208Y0012893D01*
X0195211Y0013158D01*
X0195132Y0110520D01*
X0195132Y0110521D02*
X0195121Y0110681D01*
X0195106Y0110842D01*
X0195086Y0111002D01*
X0195063Y0111161D01*
X0195036Y0111320D01*
X0195006Y0111478D01*
X0194971Y0111635D01*
X0194933Y0111792D01*
X0194891Y0111947D01*
X0194845Y0112102D01*
X0194795Y0112255D01*
X0194742Y0112407D01*
X0194685Y0112557D01*
X0194625Y0112707D01*
X0194560Y0112854D01*
X0194493Y0113001D01*
X0194422Y0113145D01*
X0194347Y0113288D01*
X0194269Y0113429D01*
X0194187Y0113568D01*
X0194102Y0113704D01*
X0194014Y0113839D01*
X0193923Y0113972D01*
X0193829Y0114102D01*
X0193731Y0114231D01*
X0193630Y0114356D01*
X0193527Y0114479D01*
X0193420Y0114600D01*
X0193310Y0114718D01*
X0193198Y0114834D01*
X0193083Y0114946D01*
X0192965Y0115056D01*
X0192845Y0115163D01*
X0192722Y0115267D01*
X0192596Y0115368D01*
X0192468Y0115466D01*
X0192338Y0115561D01*
X0192206Y0115653D01*
X0192071Y0115741D01*
X0191935Y0115826D01*
X0191796Y0115908D01*
X0191655Y0115987D01*
X0191513Y0116062D01*
X0191368Y0116133D01*
X0191222Y0116201D01*
X0191075Y0116266D01*
X0190926Y0116327D01*
X0190775Y0116384D01*
X0190623Y0116438D01*
X0190470Y0116488D01*
X0190316Y0116534D01*
X0190161Y0116576D01*
X0190004Y0116615D01*
X0189847Y0116650D01*
X0189689Y0116681D01*
X0189530Y0116709D01*
X0189371Y0116732D01*
X0189211Y0116752D01*
X0189051Y0116767D01*
X0188890Y0116779D01*
X0188729Y0116787D01*
X0188568Y0116791D01*
X0188407Y0116792D01*
X0188246Y0116788D01*
X0188085Y0116780D01*
X0017140Y0116662D01*
X0002219Y0105048D02*
X0002258Y0012843D01*
X0002238Y0012600D01*
X0002225Y0012356D01*
X0002217Y0012112D01*
X0002215Y0011868D01*
X0002219Y0011624D01*
X0002230Y0011380D01*
X0002246Y0011137D01*
X0002268Y0010894D01*
X0002296Y0010651D01*
X0002330Y0010410D01*
X0002370Y0010169D01*
X0002416Y0009929D01*
X0002468Y0009690D01*
X0002525Y0009453D01*
X0002589Y0009218D01*
X0002658Y0008984D01*
X0002733Y0008751D01*
X0002813Y0008521D01*
X0002899Y0008292D01*
X0002991Y0008066D01*
X0003088Y0007842D01*
X0003191Y0007621D01*
X0003299Y0007402D01*
X0003413Y0007186D01*
X0003532Y0006973D01*
X0003656Y0006763D01*
X0003785Y0006555D01*
X0003919Y0006352D01*
X0004058Y0006151D01*
X0004202Y0005954D01*
X0004351Y0005760D01*
X0004504Y0005571D01*
X0004662Y0005385D01*
X0004825Y0005203D01*
X0004992Y0005025D01*
X0005163Y0004851D01*
X0005339Y0004681D01*
X0005518Y0004516D01*
X0005702Y0004355D01*
X0005890Y0004199D01*
X0006081Y0004047D01*
X0006276Y0003901D01*
X0006474Y0003759D01*
X0006676Y0003621D01*
X0006882Y0003489D01*
X0007090Y0003362D01*
X0007302Y0003241D01*
X0007516Y0003124D01*
X0007733Y0003013D01*
X0007953Y0002907D01*
X0008175Y0002806D01*
X0008400Y0002711D01*
X0008627Y0002622D01*
X0008857Y0002538D01*
X0009088Y0002459D01*
X0009321Y0002387D01*
X0009556Y0002320D01*
X0009792Y0002259D01*
X0010030Y0002204D01*
X0010269Y0002155D01*
X0010509Y0002111D01*
X0010750Y0002073D01*
X0010992Y0002042D01*
X0011235Y0002016D01*
X0002220Y0105047D02*
X0002263Y0105368D01*
X0002315Y0105687D01*
X0002374Y0106004D01*
X0002441Y0106320D01*
X0002516Y0106635D01*
X0002598Y0106947D01*
X0002687Y0107258D01*
X0002784Y0107566D01*
X0002889Y0107871D01*
X0003001Y0108175D01*
X0003120Y0108475D01*
X0003246Y0108772D01*
X0003380Y0109066D01*
X0003521Y0109357D01*
X0003668Y0109645D01*
X0003823Y0109928D01*
X0003984Y0110208D01*
X0004152Y0110484D01*
X0004327Y0110756D01*
X0004508Y0111024D01*
X0004695Y0111287D01*
X0004889Y0111545D01*
X0005089Y0111799D01*
X0005295Y0112048D01*
X0005507Y0112292D01*
X0005725Y0112530D01*
X0005949Y0112763D01*
X0006178Y0112991D01*
X0006413Y0113213D01*
X0006653Y0113430D01*
X0006898Y0113640D01*
X0007148Y0113845D01*
X0007403Y0114043D01*
X0007663Y0114235D01*
X0007927Y0114421D01*
X0008195Y0114601D01*
X0008468Y0114774D01*
X0008745Y0114940D01*
X0009026Y0115099D01*
X0009311Y0115252D01*
X0009599Y0115398D01*
X0009891Y0115537D01*
X0010186Y0115668D01*
X0010484Y0115793D01*
X0010785Y0115910D01*
X0011089Y0116020D01*
X0011396Y0116123D01*
X0011704Y0116218D01*
X0012015Y0116305D01*
X0012328Y0116386D01*
X0012643Y0116458D01*
X0012960Y0116523D01*
X0013278Y0116580D01*
X0013597Y0116630D01*
X0013917Y0116672D01*
X0014239Y0116706D01*
X0014561Y0116732D01*
X0014883Y0116750D01*
X0015206Y0116761D01*
X0015529Y0116764D01*
X0015852Y0116759D01*
X0016175Y0116746D01*
X0016498Y0116726D01*
X0016819Y0116697D01*
X0017140Y0116661D01*
M02*
