G75*
%MOIN*%
%OFA0B0*%
%FSLAX25Y25*%
%IPPOS*%
%LPD*%
%AMOC8*
5,1,8,0,0,1.08239X$1,22.5*
%
%ADD10C,0.06800*%
%ADD11R,0.08083X0.08083*%
%ADD12C,0.08083*%
%ADD13R,0.04800X0.02800*%
%ADD14C,0.00500*%
%ADD15C,0.04762*%
%ADD16C,0.04369*%
D10*
X0053454Y0010926D02*
X0053454Y0016926D01*
X0063454Y0016926D02*
X0063454Y0010926D01*
X0073454Y0010926D02*
X0073454Y0016926D01*
X0083454Y0016926D02*
X0083454Y0010926D01*
X0093454Y0010926D02*
X0093454Y0016926D01*
X0103454Y0016926D02*
X0103454Y0010926D01*
X0113454Y0010926D02*
X0113454Y0016926D01*
X0123454Y0016926D02*
X0123454Y0010926D01*
X0133454Y0010926D02*
X0133454Y0016926D01*
D11*
X0016918Y0017745D03*
X0067863Y0102272D03*
D12*
X0081643Y0102272D03*
X0016918Y0031524D03*
D13*
X0065721Y0031761D03*
X0074296Y0032194D03*
X0084737Y0031406D03*
X0093312Y0031839D03*
X0089083Y0024005D03*
X0070068Y0024359D03*
D14*
X0072522Y0022062D02*
X0067249Y0022062D01*
X0067258Y0022050D02*
X0066849Y0022610D01*
X0066558Y0023238D01*
X0066395Y0023912D01*
X0066366Y0024604D01*
X0066473Y0025289D01*
X0066711Y0025940D01*
X0067072Y0026532D01*
X0067541Y0027042D01*
X0068101Y0027450D01*
X0068730Y0027742D01*
X0069403Y0027905D01*
X0070096Y0027934D01*
X0070781Y0027827D01*
X0071431Y0027588D01*
X0072023Y0027228D01*
X0072413Y0026835D01*
X0072871Y0026526D01*
X0073381Y0026313D01*
X0073923Y0026203D01*
X0074475Y0026201D01*
X0075018Y0026306D01*
X0075530Y0026516D01*
X0075990Y0026821D01*
X0072719Y0022276D01*
X0072250Y0021766D01*
X0071690Y0021358D01*
X0071061Y0021066D01*
X0070388Y0020903D01*
X0069695Y0020874D01*
X0069011Y0020981D01*
X0068360Y0021220D01*
X0067768Y0021580D01*
X0067258Y0022050D01*
X0066885Y0022560D02*
X0072924Y0022560D01*
X0073282Y0023059D02*
X0066641Y0023059D01*
X0066481Y0023557D02*
X0073641Y0023557D01*
X0074000Y0024056D02*
X0066389Y0024056D01*
X0066368Y0024554D02*
X0074359Y0024554D01*
X0074718Y0025053D02*
X0066436Y0025053D01*
X0066569Y0025551D02*
X0075076Y0025551D01*
X0075435Y0026050D02*
X0066778Y0026050D01*
X0067088Y0026548D02*
X0072838Y0026548D01*
X0072203Y0027047D02*
X0067549Y0027047D01*
X0068306Y0027545D02*
X0071502Y0027545D01*
X0072581Y0028830D02*
X0072014Y0029229D01*
X0071536Y0029731D01*
X0071165Y0030316D01*
X0070915Y0030962D01*
X0070796Y0031645D01*
X0070813Y0032338D01*
X0070971Y0032851D01*
X0071027Y0033385D01*
X0070977Y0033920D01*
X0070823Y0034434D01*
X0070573Y0034909D01*
X0070234Y0035326D01*
X0069821Y0035668D01*
X0069349Y0035924D01*
X0074753Y0035417D01*
X0075429Y0035265D01*
X0076063Y0034985D01*
X0076630Y0034586D01*
X0077108Y0034084D01*
X0077479Y0033499D01*
X0077729Y0032852D01*
X0077848Y0032170D01*
X0077831Y0031477D01*
X0077680Y0030800D01*
X0077399Y0030167D01*
X0077000Y0029600D01*
X0076499Y0029122D01*
X0075913Y0028750D01*
X0075267Y0028501D01*
X0074584Y0028382D01*
X0073891Y0028398D01*
X0073215Y0028550D01*
X0072581Y0028830D01*
X0072282Y0029041D02*
X0076372Y0029041D01*
X0076937Y0029539D02*
X0071718Y0029539D01*
X0071341Y0030038D02*
X0077309Y0030038D01*
X0077563Y0030536D02*
X0071080Y0030536D01*
X0070903Y0031035D02*
X0077732Y0031035D01*
X0077832Y0031534D02*
X0070816Y0031534D01*
X0070806Y0032032D02*
X0077844Y0032032D01*
X0077785Y0032531D02*
X0070872Y0032531D01*
X0070990Y0033029D02*
X0077661Y0033029D01*
X0077461Y0033528D02*
X0071013Y0033528D01*
X0070945Y0034026D02*
X0077145Y0034026D01*
X0076688Y0034525D02*
X0070776Y0034525D01*
X0070480Y0035023D02*
X0075976Y0035023D01*
X0073634Y0035522D02*
X0069998Y0035522D01*
X0068624Y0034026D02*
X0062850Y0034026D01*
X0062777Y0033936D02*
X0063212Y0034476D01*
X0063744Y0034920D01*
X0064352Y0035252D01*
X0065014Y0035459D01*
X0065703Y0035533D01*
X0066393Y0035471D01*
X0067058Y0035276D01*
X0067672Y0034954D01*
X0068212Y0034519D01*
X0068656Y0033987D01*
X0068988Y0033379D01*
X0069195Y0032718D01*
X0069269Y0032029D01*
X0069207Y0031338D01*
X0069012Y0030673D01*
X0068691Y0030059D01*
X0068256Y0029520D01*
X0067724Y0029075D01*
X0067115Y0028743D01*
X0066571Y0028584D01*
X0066069Y0028322D01*
X0065627Y0027967D01*
X0065263Y0027533D01*
X0064991Y0027036D01*
X0064821Y0026495D01*
X0064759Y0025932D01*
X0064809Y0025367D01*
X0062480Y0030616D01*
X0062273Y0031278D01*
X0062199Y0031967D01*
X0062260Y0032657D01*
X0062456Y0033322D01*
X0062777Y0033936D01*
X0062563Y0033528D02*
X0068907Y0033528D01*
X0069098Y0033029D02*
X0062370Y0033029D01*
X0062249Y0032531D02*
X0069215Y0032531D01*
X0069269Y0032032D02*
X0062204Y0032032D01*
X0062245Y0031534D02*
X0069225Y0031534D01*
X0069118Y0031035D02*
X0062348Y0031035D01*
X0062515Y0030536D02*
X0068940Y0030536D01*
X0068673Y0030038D02*
X0062736Y0030038D01*
X0062957Y0029539D02*
X0068272Y0029539D01*
X0067661Y0029041D02*
X0063179Y0029041D01*
X0063400Y0028542D02*
X0066491Y0028542D01*
X0065723Y0028044D02*
X0063621Y0028044D01*
X0063842Y0027545D02*
X0065274Y0027545D01*
X0064997Y0027047D02*
X0064064Y0027047D01*
X0064285Y0026548D02*
X0064838Y0026548D01*
X0064772Y0026050D02*
X0064506Y0026050D01*
X0064728Y0025551D02*
X0064793Y0025551D01*
X0067796Y0021563D02*
X0071972Y0021563D01*
X0071055Y0021065D02*
X0068782Y0021065D01*
X0075579Y0026548D02*
X0075794Y0026548D01*
X0075375Y0028542D02*
X0073248Y0028542D01*
X0081288Y0030923D02*
X0081214Y0031612D01*
X0081276Y0032303D01*
X0081472Y0032968D01*
X0081793Y0033582D01*
X0082228Y0034121D01*
X0082760Y0034566D01*
X0083368Y0034898D01*
X0084030Y0035105D01*
X0084719Y0035179D01*
X0085409Y0035117D01*
X0086074Y0034921D01*
X0086688Y0034600D01*
X0087228Y0034165D01*
X0087672Y0033633D01*
X0088004Y0033025D01*
X0088211Y0032363D01*
X0088285Y0031674D01*
X0088223Y0030984D01*
X0088028Y0030319D01*
X0087706Y0029705D01*
X0087271Y0029165D01*
X0086740Y0028721D01*
X0086131Y0028389D01*
X0085587Y0028230D01*
X0085085Y0027968D01*
X0084643Y0027613D01*
X0084279Y0027178D01*
X0084007Y0026681D01*
X0083837Y0026141D01*
X0083775Y0025577D01*
X0083825Y0025013D01*
X0081495Y0030262D01*
X0081288Y0030923D01*
X0081276Y0031035D02*
X0088228Y0031035D01*
X0088272Y0031534D02*
X0081223Y0031534D01*
X0081252Y0032032D02*
X0088247Y0032032D01*
X0088159Y0032531D02*
X0081343Y0032531D01*
X0081504Y0033029D02*
X0088002Y0033029D01*
X0087730Y0033528D02*
X0081765Y0033528D01*
X0082151Y0034026D02*
X0087344Y0034026D01*
X0086782Y0034525D02*
X0082711Y0034525D01*
X0083769Y0035023D02*
X0085728Y0035023D01*
X0088364Y0035570D02*
X0088837Y0035314D01*
X0089250Y0034971D01*
X0089588Y0034555D01*
X0089839Y0034080D01*
X0089992Y0033565D01*
X0090042Y0033031D01*
X0089987Y0032497D01*
X0089829Y0031984D01*
X0089812Y0031291D01*
X0089931Y0030608D01*
X0090181Y0029962D01*
X0090552Y0029376D01*
X0091030Y0028875D01*
X0091597Y0028476D01*
X0092231Y0028195D01*
X0092907Y0028044D01*
X0093600Y0028027D01*
X0094283Y0028146D01*
X0094929Y0028396D01*
X0095514Y0028767D01*
X0096016Y0029245D01*
X0096415Y0029812D01*
X0096695Y0030446D01*
X0096847Y0031122D01*
X0096863Y0031815D01*
X0096745Y0032498D01*
X0096495Y0033145D01*
X0096124Y0033730D01*
X0095645Y0034231D01*
X0095079Y0034630D01*
X0094445Y0034911D01*
X0093768Y0035062D01*
X0088364Y0035570D01*
X0088453Y0035522D02*
X0088876Y0035522D01*
X0089188Y0035023D02*
X0093943Y0035023D01*
X0095229Y0034525D02*
X0089604Y0034525D01*
X0089855Y0034026D02*
X0095841Y0034026D01*
X0096252Y0033528D02*
X0089996Y0033528D01*
X0090042Y0033029D02*
X0096539Y0033029D01*
X0096732Y0032531D02*
X0089991Y0032531D01*
X0089844Y0032032D02*
X0096826Y0032032D01*
X0096857Y0031534D02*
X0089818Y0031534D01*
X0089857Y0031035D02*
X0096827Y0031035D01*
X0096716Y0030536D02*
X0089959Y0030536D01*
X0090151Y0030038D02*
X0096515Y0030038D01*
X0096223Y0029539D02*
X0090448Y0029539D01*
X0090872Y0029041D02*
X0095802Y0029041D01*
X0095160Y0028542D02*
X0091502Y0028542D01*
X0092909Y0028044D02*
X0093695Y0028044D01*
X0095006Y0026467D02*
X0094545Y0026162D01*
X0094034Y0025952D01*
X0093491Y0025846D01*
X0092938Y0025848D01*
X0092397Y0025958D01*
X0091887Y0026172D01*
X0091428Y0026481D01*
X0091039Y0026873D01*
X0090447Y0027234D01*
X0089796Y0027473D01*
X0089112Y0027579D01*
X0088419Y0027551D01*
X0087746Y0027387D01*
X0087117Y0027096D01*
X0086557Y0026687D01*
X0086088Y0026177D01*
X0085727Y0025586D01*
X0085489Y0024935D01*
X0085382Y0024250D01*
X0085410Y0023558D01*
X0085574Y0022884D01*
X0085865Y0022255D01*
X0086274Y0021695D01*
X0086784Y0021226D01*
X0087376Y0020865D01*
X0088026Y0020627D01*
X0088711Y0020520D01*
X0089404Y0020549D01*
X0090077Y0020712D01*
X0090706Y0021004D01*
X0091266Y0021412D01*
X0091735Y0021922D01*
X0095006Y0026467D01*
X0094706Y0026050D02*
X0094273Y0026050D01*
X0094347Y0025551D02*
X0085714Y0025551D01*
X0085532Y0025053D02*
X0093988Y0025053D01*
X0093630Y0024554D02*
X0085429Y0024554D01*
X0085390Y0024056D02*
X0093271Y0024056D01*
X0092912Y0023557D02*
X0085410Y0023557D01*
X0085531Y0023059D02*
X0092553Y0023059D01*
X0092194Y0022560D02*
X0085724Y0022560D01*
X0086006Y0022062D02*
X0091836Y0022062D01*
X0091405Y0021563D02*
X0086417Y0021563D01*
X0087048Y0021065D02*
X0090790Y0021065D01*
X0089476Y0020566D02*
X0088414Y0020566D01*
X0086010Y0026050D02*
X0092178Y0026050D01*
X0091361Y0026548D02*
X0086429Y0026548D01*
X0087050Y0027047D02*
X0090754Y0027047D01*
X0089330Y0027545D02*
X0088397Y0027545D01*
X0087123Y0029041D02*
X0082037Y0029041D01*
X0081816Y0029539D02*
X0087573Y0029539D01*
X0087881Y0030038D02*
X0081595Y0030038D01*
X0081409Y0030536D02*
X0088092Y0030536D01*
X0086412Y0028542D02*
X0082258Y0028542D01*
X0082480Y0028044D02*
X0085230Y0028044D01*
X0084586Y0027545D02*
X0082701Y0027545D01*
X0082922Y0027047D02*
X0084207Y0027047D01*
X0083965Y0026548D02*
X0083143Y0026548D01*
X0083365Y0026050D02*
X0083827Y0026050D01*
X0083778Y0025551D02*
X0083586Y0025551D01*
X0083807Y0025053D02*
X0083821Y0025053D01*
X0068205Y0034525D02*
X0063271Y0034525D01*
X0063933Y0035023D02*
X0067541Y0035023D01*
X0065829Y0035522D02*
X0065598Y0035522D01*
D15*
X0105487Y0064339D03*
X0132298Y0064339D03*
X0147298Y0053867D03*
X0153282Y0064339D03*
X0139713Y0093611D03*
X0121249Y0096643D03*
X0096918Y0102587D03*
X0161668Y0095048D03*
X0188296Y0102115D03*
X0178296Y0024713D03*
X0173282Y0008631D03*
X0151983Y0009930D03*
X0011485Y0090383D03*
D16*
X0014792Y0084989D03*
X0023099Y0085501D03*
X0023965Y0091957D03*
X0050580Y0077509D03*
X0076269Y0092039D03*
X0060383Y0058769D03*
X0077430Y0036524D03*
X0098257Y0041013D03*
X0101524Y0029674D03*
X0139831Y0005186D03*
X0154517Y0031170D03*
M02*
